<?xml version="1.0" encoding="UTF-8"?> <!-- Creator: CorelDRAW 2019 (64-Bit) --> <svg xmlns="http://www.w3.org/2000/svg" xmlns:xlink="http://www.w3.org/1999/xlink" xml:space="preserve" width="9.18596in" height="0.559433in" version="1.1" style="shape-rendering:geometricPrecision; text-rendering:geometricPrecision; image-rendering:optimizeQuality; fill-rule:evenodd; clip-rule:evenodd" viewBox="0 0 9210.16 560.91"> <defs> <style type="text/css"> <![CDATA[ .fil0 {fill:#AA3D1C} ]]> </style> </defs> <g id="Layer_x0020_1"> <metadata id="CorelCorpID_0Corel-Layer"></metadata> <g id="_2462847784912"> <g> <path class="fil0" d="M2315.49 430.22c5.63,-2.7 5.21,-1.29 8.31,-2.36 13.98,-4.78 -7.05,3.65 3.94,-1.41l6.43 -4.23c19.25,-14.29 4.55,-6.92 25.7,-16.97l8.96 -9.71c14.85,0 14.43,1.65 22.39,9.61 0.56,0.54 2.04,2.21 2.62,2.72 7.78,6.96 8.4,4.48 16.05,7.95 14.12,6.41 27.71,13.37 36.28,25.07l-24.33 26.34c-0.34,0.43 -0.88,1 -1.22,1.46l-3.42 7.24c-5.68,16.98 0.52,8.54 -12.58,19.43 -5.81,4.82 -3.56,1.98 -7.39,8.61 -0.3,0.51 -0.68,1.18 -0.94,1.73l-3.46 9.87c-9.65,-5.1 -17.68,-14.72 -18.67,-26.67 -13.11,-1.44 -3.07,0.4 -9.4,-3.93l-24.4 -20.95c-7.33,-3.12 -13.89,-1.63 -23.63,-16.22l-1.25 -17.58zm-1397.55 -48l13.33 0 0 8c11.05,0.92 4.2,-0.87 11.72,4.29 23.43,16.04 11.4,4.8 23.81,13.52 4.33,3.04 6.74,5.64 9.8,8.87 -4.03,15.1 -1.55,-1.86 -8.54,18.12 -4.06,11.63 -8.39,11.47 -10.62,16.14 -4.03,8.41 -1.75,4.1 0.49,13.74 -11.27,2.63 -15.94,3.24 -23.28,-6.02l-7.22 -11.48c-8.78,-11.97 -40.34,-31.96 -54.84,-33.17 5.77,-7.88 2.94,-3.45 15.6,-11.06 0.69,-0.41 2.57,-1.66 3.26,-2.06l12.17 -6.5c7.56,-3.98 11.73,-5.28 14.3,-12.38zm3013.79 80.01c-14.7,-9.86 -8.9,-6.21 -15.86,-14.93 -0.19,-0.24 -0.67,-0.85 -0.88,-1.11 -16.14,-18.54 -57.58,-15.53 -6.89,-50.34l6.21 -4.56c7.31,-5.56 2.59,-2.77 6.76,-4.15 0.61,-0.21 2.51,-0.38 3.14,-0.57 4.31,-1.34 1.78,0.36 4.76,-1.77 0.57,-0.41 2.14,-1.99 2.6,-2.55 2.53,-3.08 1.02,-0.3 2.85,-5.36l8 0c2.55,7.06 2.92,7.6 10.14,9.73 0.39,0.12 1.22,0.16 1.61,0.26 0.39,0.1 1.19,0.16 1.57,0.26l6 2.4c9.49,5.19 18.73,10.03 13.65,19.92 -2.6,5.07 -3.28,3.47 -8.72,7.65l-18.04 24.66c-4.56,9.22 -3.32,11.38 -16.89,20.46zm1480.23 -112.02c17.54,-0.42 -1.73,-8.8 20.68,-5.07l35.21 13.19c0.51,0.29 1.13,0.75 1.61,1.05 7.44,4.61 10.14,7.23 19.85,9.49l0 8c-10.5,0.87 -12.77,4.07 -19.79,12.22l-20.27 19.74c-6.83,7.12 -0.54,6.98 -13.29,8.05 -0.96,11.53 -5.31,14.42 -13.33,18.66 -0.22,-0.63 -0.75,-1.4 -0.91,-1.77 -4.7,-10.84 -1.19,-9.28 -5.89,-13.15 -10.6,-8.73 -4.42,-5 -10.72,-13 -10.51,-13.32 -8.14,-1.04 -18.64,-7.9 -8.84,-5.76 -2.47,-7.82 -14.51,-12.18 2.38,-8.94 1.83,-6.53 9.14,-12.32 4.94,-3.9 -0.44,-0.55 6.17,-4.4 13.03,-7.58 7.71,3.87 18.63,-7.83 0.53,-0.57 1.95,-2.4 2.39,-3.07l3.67 -9.73zm-2725.75 13.33c0.45,-20.29 8.11,-6.51 10.67,-37.33 41.07,0 23.46,6.68 45.34,21.34 -2.64,11.35 -2.64,16.57 -9.85,24.81 -16.85,19.26 -54.24,22.18 -56.82,-8.81l10.67 0zm1109.51 -29.33c16.07,0 52.04,-8.36 58.67,-26.67 2.09,1.39 8.21,4.67 10.02,5.98l20.95 24.38c5.78,7.04 8.41,8.21 15.47,13.93 19.3,15.66 9.64,14.23 9.57,14.39 -3.67,8.38 3.82,1.7 -14.36,9.65 -14.9,6.5 -6.26,3.19 -16.37,13.03l-10.92 7.07c-11.91,4.43 3.26,-5.24 -6.42,2.19 -5.19,3.98 7.09,5.39 -18.6,5.39 -5.91,14.61 -24,0.41 -34.91,5.52 -13.93,6.53 -2.14,3.12 -26.43,5.14 -1.49,-13.59 0.07,-4.62 -11.26,-5.76 -2.66,-0.26 -11.91,-1.36 -19.39,-3.48 -2.67,-0.75 -8.74,-2.85 -10.11,-3.37l-9.14 -4.36c-18.56,-9.82 -5.97,3.79 -23.74,-10.69 -0.37,-0.31 -4.65,-3.46 -4.71,-3.49 -1.1,-0.61 -2.23,-1.14 -3.36,-1.55 -13.05,-4.75 -0.43,10.2 -22.55,-15.07l-2.52 -2.82c-0.52,-0.58 -2.08,-2.15 -2.62,-2.72 -12.72,-13.25 -10.63,-11.1 -10.63,-32.04 0,-16.17 28.01,-7.84 38.3,-10.01 5.55,-1.17 -2.56,-3.41 12.54,-1.02 37.69,5.96 28.6,-5.97 47.59,5.91 0.49,0.31 1.13,0.77 1.62,1.08 0.54,0.34 4.95,3.06 4.96,3.06 6.76,3.53 19.26,6.32 28.35,6.32zm429.39 24c6.35,-9.47 5.14,-13.63 10,-22.01l14 -17.99c4.69,1.09 15.85,2.36 20.17,3.83 15.82,5.42 26.54,28.43 -5.75,47.96 -14.13,8.54 -20.19,6.11 -27.3,-1.39 -6.32,-6.68 -4.25,-7.91 -11.12,-10.4zm-2154.99 -29.34c11.44,-12.07 25.2,-7.91 53.07,-8.9l50.94 0.89c1.71,3.56 2.01,5.03 3.98,9.36 6.1,13.37 5.12,12.09 14.35,20.31 17.92,15.94 16.01,10.93 38.58,11.77 19.13,0.71 5.23,0.15 28.31,-6.89 18.21,-5.55 8.77,-9.48 23.66,-16.34 19.02,-8.76 14.51,1.25 19.13,-10.2l16 0c2.63,6.52 0.64,1.59 4.9,5.76 0.38,0.38 1.02,0.88 1.42,1.26 0.39,0.37 1.04,0.84 1.43,1.22l21.07 26.96c5.06,7.5 4.98,6.73 13.86,7.48l-8.63 12.7c-14.14,10.02 -3.43,9.4 -28.53,19.48l-22.4 14.94c-0.45,0.34 -1.03,0.86 -1.49,1.19l-3.02 2.32c-2.72,1.85 1.16,0.02 -5.06,3.05 -8.44,4.12 -11.32,3.14 -15.52,3.44 -16.24,1.12 1.75,2.83 -35.58,9.34 -22.09,3.85 -4.59,10.31 -35.46,1.13 -17.34,-5.14 -4.67,2.65 -36.84,-8.25 -0.83,-0.28 -3.14,-1.2 -4,-1.46 -11.47,-3.48 -12.62,0.16 -22.3,-7.11 -19.97,-15.01 -19.73,-8.59 -29.23,-18.78l-17.05 -20.28c-10.05,-14.78 -6.73,-4.97 -14.53,-23.02 -0.35,-0.82 -2.36,-5.02 -2.39,-5.12 -2.06,-5.65 -0.39,0.3 -1.24,-4.79 -2.42,-14.32 2.22,6.92 -0.4,-5.3 -0.92,-4.31 -1,-3.43 -1.81,-5.22 -0.23,-0.52 -0.7,-1.16 -0.96,-1.68l-1.97 -3.44c-2.06,-4.28 -1.07,-3.07 -2.3,-5.83zm-24.62 30.58l-5.86 -2.46c-22.13,-8.27 -11.68,-4.35 -27.27,-18.38 -4.18,-3.77 -0.16,-2.2 -6.26,-4.41l0 -5.33c12.49,-3.33 4.14,-8.01 40.01,-8.01 6.48,27.86 10.66,15.84 10.66,26.68 0,9.72 0.71,15.18 -11.29,11.91zm1581.9 -39.76c6.54,-0.02 2.4,-5.13 8.63,1.13 4.52,4.56 2.33,26.13 6.56,35.84 3.02,6.91 -0.13,4.24 6.44,6.89l0 13.34c-12.54,4.54 -2.64,10.67 -34.67,8 -1.31,-12.04 2.59,-4.61 -6.45,-9.54 -3.61,-1.98 -8.92,-1.14 -13.2,-8.14l-4.87 -11.13c-0.28,-0.5 -0.77,-1.1 -1.08,-1.59l-4.37 -6.34c-13.98,-29.83 10.09,-27.79 14.96,-29.01 15.41,-3.87 8.71,0.63 28.07,0.56zm-2394.74 33.19c0,-32.6 1.79,-25.5 5.34,-26.67l29.33 -5.34c4.78,13.2 0.42,-1.84 5.06,8.32 4.94,10.76 2.81,22.87 -6.44,30.23l-7.63 5.78c-5.91,5.39 -5.03,6.79 -12.33,11.68 -12.28,-2.86 -7.28,-5.33 -24.01,-5.33 1.82,-7.85 2.66,-8.14 2.66,-18.67l8.01 0zm4083.3 -29.33c9.04,0 2.33,-1.88 10.9,-5.13 9.64,-3.65 2.19,-0.27 8.56,-1.67 5.56,-1.22 17.83,-13.31 25.5,-20.23 8.95,-8.11 6.68,-9.97 21.7,-10.31l0 7.99c18.81,1.57 12.34,17.86 29.34,24.01 -1.94,23.26 -6.81,23.38 -15.01,27.66 -0.54,0.28 -1.25,0.6 -1.8,0.88 -8.63,4.33 -20.11,8.42 -24.08,15.92l-30.32 14.94c-0.64,0.24 -1.32,0.51 -1.98,0.73 -0.68,0.22 -1.4,0.39 -2.1,0.58 -18.49,5.23 -14.31,6.14 -39.37,6.02l-42.8 -2.59c-20.88,-2.34 -9,-8.28 -20.63,-9.13l-25.53 -14.04c-13.63,-10.84 -2.93,-7.61 -15.06,-8.94 -0.24,-10.93 -2.67,-12.47 -7.44,-19.41 -0.42,-0.61 -1.74,-2.23 -2.08,-2.84 -0.2,-0.36 -0.64,-1.01 -0.81,-1.39l-0.34 -11.04c13.11,0 30.87,-0.03 38.93,-1.05l8.32 -1.24c0.26,0 1,0.11 1.26,0.13 0.3,0.04 1.06,0.2 1.37,0.23 25.82,2.79 33.95,7.76 48.87,7.42 6.99,-0.17 16.1,-1.08 18.08,-0.84 12.31,1.46 -2.01,3.36 16.53,3.36zm-3061.17 8.63c-7.48,1.71 -3.99,1.4 -5.92,2.09 -11.41,4.12 -39.06,4.58 -48.16,-5.14l-3.48 -4.66c-6.53,-9.69 3.12,9.85 -1.76,-3.59 16.91,0 22.26,-2.66 40.01,-2.66 11.56,0 4.06,1.95 12.97,1.69 15.98,-0.48 2.64,-4.22 24.36,0.98 -3.63,13.63 -4.92,8.29 -18.03,11.3zm-1643.55 4.7c-9.27,3.36 -0.66,3.19 -21.34,8 -2.81,-10.58 -9.86,-12.17 -15.99,-21.33 5.6,-10.34 0.06,-5.34 29.33,-5.34l2.61 10.73c0.28,0.51 0.84,1.08 1.13,1.54l3.28 4.72c0.17,-0.41 0.67,1.11 0.98,1.69zm4507.36 -21.34c10.07,0 4.47,-1.55 12.56,-1.18 11.01,0.5 23.7,4.16 35.44,-1.48 -1.63,19.58 -5.75,-1.81 0,37.33 -24.69,0 -21.21,3.04 -30.51,-1.39 -6.27,-3 5.74,-3.54 -12.16,-3.94 -0.29,-12.67 -0.98,-14.65 -13.33,-16l0 -13.34 8.01 0zm-4378.67 97.59c-5.79,-0.5 -4.42,-0.36 -9.76,-2.99 -13.64,-6.72 -9.02,-1.85 -21.15,-5.69 -0.83,-0.26 -3.02,-1.22 -3.8,-1.53 -0.58,-0.26 -1.26,-0.6 -1.82,-0.84 -27.55,-12.53 -10.71,-18.09 -39.68,-27.19 -25.6,-8.03 7.58,1.4 -19.08,-28.73l-17.4 -30.62c17.39,4.05 7.38,0 21.34,0 12.97,0 3.47,2.73 12.9,1.52 11.87,-1.5 -0.66,-4.18 11.1,-4.18 14,0 28.88,-0.51 42.76,-0.09 14.16,0.42 20.11,2.86 37.22,2.78 13.9,-0.05 31.73,-1.49 38.17,-0.43 19.53,3.22 38.44,4.93 57.88,0.39 0.72,6.6 0.3,8.83 10.82,15.85 0.49,0.32 1.17,0.69 1.67,1l25.84 19.5c2.37,2.98 2.72,8.18 12.35,11.66l0 10.67c-12.5,0.28 -8.3,1.4 -17.76,9.1l-10.92 5.32c-0.4,0.09 -1.22,0.13 -1.61,0.23 -0.38,0.11 -1.21,0.16 -1.58,0.29l-6.34 5.34c-2.19,3.9 -1.1,-0.09 -1.82,6.39l-47.68 13.67c-20.19,5.77 -14.67,-3.05 -18.99,7.67 -5.47,-1.81 -2.31,-0.84 -3.75,-2.16l-48.92 -6.93zm4973.42 -78.92c0,-13.99 -0.26,-24.51 6.03,-28.61 10.74,-6.99 12.17,5.89 25.97,-0.74 -1.22,14.74 -13.65,33.53 -17.62,35.72 -4.86,2.68 -8.14,1.63 -14.38,1.63l0 -8.01zm-5320.82 -42.67c-8.1,-3.27 -3.87,5.83 -5.63,-10.38 -5.08,-46.65 13.54,-34.97 53.65,-34.97 7.53,15.71 5.33,28.41 5.33,50.68 -12.62,1.05 -11.55,3.96 -28.19,1.64 -33.73,-4.71 -21.39,2.33 -25.16,-6.97zm66.68 -24.01c0,-21.42 13.64,-30.95 15.36,-12.24 2.79,30.24 12.71,41.58 -2.03,41.58 -16.39,0 -13.34,-10.37 -13.34,-29.34zm-98.68 -5.34c0,-10.05 1.75,-5.04 2.67,-16 8.31,0.73 4.99,-0.44 6.49,3.83 3.72,10.48 -2.08,10.26 1.24,17.4l-2.41 2.78c0,6.56 0.05,11.63 0.59,18.11 0.74,8.77 0.38,2.23 -0.59,13.89l-5.33 0c-1.92,-5.28 -1.25,-2.8 -3.87,-6.8 -2.56,-3.9 -2.39,-3.24 -4.14,-6.54 3.15,-5.95 4.46,-8.03 8.01,-13.35 -1.39,-5.97 -2.67,-6.12 -2.67,-13.33zm5147.45 -29.34c22.42,0 36.8,2.59 55.95,2.79 4.24,0.05 12.3,0.31 16.2,-0.04 4.51,-0.42 3.09,-0.26 6.89,-1.26 0.65,-0.18 1.32,-0.5 1.94,-0.69 0.58,-0.17 1.26,-0.53 1.82,-0.71 9.26,-2.91 6.69,-1.64 20.05,-1.62 28.81,0.05 41.99,4.58 75.46,0.98l149.74 3.24c0.5,0 0.99,-0.02 1.49,-0.05 1.26,-16.46 1.88,-22.56 3.16,-26.6l-52.71 0.05c-4.94,0.28 -10.41,0.26 -14.96,-1.02 -10.72,-3 3.84,0.26 -8.99,-4.39 2.34,-8.76 3.87,-8.78 10.67,-13.33 -1.86,-8 -4.59,-15.19 -5.33,-24 -6.27,-1.46 -7.88,-2.49 -16,-2.66 -1.46,-17.59 -18.45,-10.67 -40,-10.67l-21.34 5.33c-1.86,-7.98 -3.48,-7.85 -5.46,-13.37 -4.58,-12.76 -0.95,-4.95 -0.61,-14.02 0.41,-10.63 -8.81,-15.7 -9.94,-25.95 -11.75,0 -15.52,-0.26 -24.28,-7.71 -0.42,-0.36 -1.01,-0.87 -1.45,-1.23l-19.69 -12.31c-0.21,-0.09 -5.49,-2.01 -5.87,-2.14l-28.61 -8.48c-20.21,1.43 1.96,4.33 -12.45,3.14 -22.76,-1.89 -2.95,-8.59 -43.9,1.82 -4.78,1.22 -3.89,0.63 -8.57,2.11 -12.77,4.05 -18.43,11.3 -30.64,13.24 -16.41,2.62 -21.33,6.22 -43.24,6.22l-23.51 -35.18c-17.36,-19.17 -28.65,-20.43 -47.2,-3.53 -10.59,9.64 8.1,-6.89 -2.8,2.53l-16.81 15.2c-0.39,0.39 -0.89,1 -1.29,1.39 -8.1,7.7 -2.38,2.98 -12.14,6.53 -9.45,3.43 -0.76,-1.79 -8.77,4.56l-25.98 16.71c-23.94,12.23 -40.17,-7.89 -73.63,0.08 -14.08,3.36 -32.31,4.74 -45.81,11.17l-4.41 2.12c-0.36,0.12 -1.12,0.28 -1.48,0.39l-9.94 2.8c-0.53,0.23 -1.22,0.62 -1.75,0.88 -0.26,0.14 -3.13,1.73 -3.49,1.93 -6.01,3.6 -5,2.66 -9,7.13 -6.46,7.18 -1.94,-1.49 -5.36,7.96 -27.79,-13.33 -27.1,-6.53 -38.5,-2.63l-8.36 1.38c-9.77,2.46 -13.37,4.45 -14.48,14.58l-8 0c-1.75,15.99 -8.01,3.93 -8.01,21.34 0,13.23 -1.27,25.87 8.01,34.68 -14.24,0 -28.47,-0.05 -42.71,0.03 -17.97,0.1 -24.16,-2.57 -39.88,-2.81 -24.24,-0.38 -33.38,4.44 -52.59,3.86 -12.75,-0.38 -5.88,1.59 -16.86,1.59 -13.02,0 -9.2,-3.57 -21.05,-2.2 -15.4,1.78 -2.07,3.53 -27.96,1.19 -6.32,-0.58 -12.36,-0.9 -13.51,-5.91 -0.18,-0.75 -0.98,-0.73 -1.48,-1.09 13.88,-3.71 2.26,-2.56 13.33,-10.67 -2.48,-6.14 -11.28,-5.34 -2.67,-8 0,-27.32 -5.7,-29.4 -24.98,-47.03 -17.45,-15.95 -41.71,-13.87 -63.03,-3.64 0,-15.29 0.12,-18.11 -4.32,-30.35 -0.23,-0.64 -0.45,-1.35 -0.68,-1.99l-18.17 -29.85c-5.93,-7.82 -8.84,-10.48 -8.84,-20.5l-44.09 -7.14c-8.35,2.03 -16.39,1.05 -23.36,6.38 -9.16,6.99 -2.42,10.04 -15.23,11.44 -1.2,10.89 -7.07,11.47 -12.42,19.58 -2.51,3.79 -0.94,1.07 -2.94,5.07 -4.51,9 -7.66,18.76 -9.66,30.6 -3.86,22.83 10.44,23.01 -0.04,28.68 -9.52,5.16 -18.66,-9.25 -25.62,-9.25 -25.83,0 -11.33,0.66 -27.17,4.84 -7.69,2.03 -13.6,4.05 -19.1,10.23 -2.87,3.23 -0.64,1.29 -3.53,4.48 -2.69,2.96 -1.85,2 -4.05,3.96 -0.65,0.58 -4.15,3.19 -4.5,3.55 -8.96,9.26 -3.76,28.35 1.95,37.13 4.43,6.82 3.35,1.63 5.71,10.5 -6.32,2.35 -3.5,-1.6 -5.33,5.34 -10.59,-3.52 5.64,-7.47 -14.25,-2.83l-33.57 0.04c-13.84,-1.94 -4.85,-2.29 -14.59,-4.54 -16.11,-3.71 -9.02,6.32 -28.38,5.14 -15.99,-0.96 -7.87,0.86 -10.56,-5.81l-10.68 0c-2.56,6.36 -7.81,5.6 -15.71,5.63l-146.2 0.05c-0.42,-0.08 -1.18,-0.32 -1.61,-0.41 -0.43,-0.09 -1.2,-0.33 -1.64,-0.42 -0.46,-0.08 -1.25,-0.29 -1.71,-0.36 -13.83,-2.15 -15.97,2.01 -14.68,-12.06 0.04,-0.49 0.09,-1.76 0.15,-2.26 0.04,-0.23 0.11,-0.96 0.15,-1.19 0.04,-0.25 0.2,-0.99 0.24,-1.25l1.04 -4.51c0.77,-14.08 -22.37,-26.34 -34.1,-30.76 -9.28,-3.49 -29.48,-1.86 -37.61,9.21 -5.71,7.78 2.36,-7.54 -1.69,3.64l-8 0c-4.39,-12.11 -23.04,-16.97 -31.75,-26.92l-7.64 -8.36c-4.81,-2.66 -1.3,-0.63 -6.06,-1.93 -8.48,-2.33 -3.05,0.93 -12.11,-3.89 -12.76,-6.79 -6,-5.16 -23.57,-8.44 -16.11,-3.02 -29.52,-10.63 -42.84,-13.59 -2.44,-0.54 -1.89,0.17 -4.6,-1.11 -12.1,-5.73 -14.06,-10.03 -32.27,-11.87 -27.28,-2.77 -35.35,4.38 -41.52,3.7l-7.43 -2.95c-9.11,-5.52 -7.68,-11.35 -19.57,-12.66 -1.62,-14.79 3.31,-1.92 -7.03,-11.63l-20.61 -22.07c-1.94,-2.43 -1.53,-2.12 -3.47,-4.52 -7.29,-9.02 -9.47,-19.83 -16.23,-29.06 -3.13,-4.28 0.08,-1.58 -3.62,-4.24 -3.96,-2.82 -7.29,-2.85 -13.03,-3.14l-8.44 13.68c-16.96,16.83 -8.96,17.01 -20.89,18.33 -0.94,11.91 -3.75,17.23 -11.5,23.34 -6.83,5.38 -6.17,3.06 -10.31,4.31 -6.5,1.99 -2.67,-1.46 -8.55,5.81 -7.44,9.2 -9.95,9.03 -18.94,15.91 -6.82,5.24 -11.12,12.24 -20.05,14.63 -6.98,-4.68 -5.51,-1.35 -8,-10.67l-8.01 0c-2.55,8.27 2.72,0.98 -2.03,1.99 -0.4,0.09 -2.09,-0.19 -4.06,-0.44l-20.95 1.04c-0.29,0 -1.04,-0.04 -1.34,-0.07 -26.63,-1.55 -19.89,1.13 -43.7,5.84l-16 4.8c-23.35,10.25 -13.35,4.54 -31.88,21.58 -9.68,8.91 -12.19,17.02 -26.72,18.61 -0.61,5.5 -0.88,3.66 -1.87,6.14l-2.65 5.34c-3.06,5.53 -3.17,5.4 -6.15,9.85 -16.12,0 -14.96,-5.23 -31.81,-5.55 -25.55,-0.48 -41.12,2.87 -47.78,27.3 -2.93,10.72 -0.47,23.6 -11.09,23.6l-194.69 0c-11.62,0 -5.72,-2.05 -6.02,-4.56l11.34 -22.12c-2,-3.77 -1.35,-2.09 -3.84,-6.83 -3.53,-6.76 -1.34,-2.19 -3.33,-7.33 -7.05,-18.15 -22.91,-29.17 -39.2,-38.16l-5.29 -2.71c-3.65,-1.16 -2.92,-0.86 -6.91,-1.2 -28.52,-2.42 -24.24,8.44 -26.77,0.22l-8.01 0 -0.92 -13.86c-1.17,-5.74 -5.73,-9.56 -9.5,-13.02l-12.27 -11.77c-9.86,-9.61 -20.9,-16.56 -30.39,-20.28 -4.46,-1.74 -6.23,-2.41 -13.6,-2.41 -31.39,0 -37.57,-2.12 -59.15,26.37 -0.3,0.4 -0.84,1.02 -1.11,1.42 -0.25,0.39 -0.71,1.07 -0.92,1.46l-1.68 13.77c0.3,17.71 0.21,3.26 -3.81,18.32l-36.02 -11.76c-8.48,-0.94 -38.63,4.05 -44.26,8.64l-12.91 13.95c-7.4,9.25 -10,17.03 -11.42,28.58 -5.03,40.97 5.44,26.52 5.93,48.6l-88.01 0c-19.86,0 -31.37,5.34 -42.68,5.34 -15.75,0 -9.3,-2.95 -21.73,-5.06 -3.58,-0.61 -11.45,-0.41 -15.13,0.04l-123.16 2.35c0,-6.56 0.92,-10.14 1.31,-15.13l-14.74 -27.41c-13.38,-13.21 -50.07,-23.66 -58.58,-0.13 -9.5,-2.53 -5.57,-1.11 -10.87,-7.8 -2.17,-2.75 -5.69,-7.72 -7.8,-10.87 -7.88,2.1 -4.32,1.08 -10.66,5.33 -3.26,-8.98 0.91,-1.21 -5.19,-8.14l-11.67 -9.67c-0.41,-0.36 -1.01,-0.88 -1.42,-1.24 -7.89,-7.32 -15.3,-18.98 -25.36,-22.65 -0.66,-0.24 -1.45,-0.32 -2.12,-0.55 -5.21,-1.85 0.5,1.08 -4.12,-1.21 -6.57,-3.27 -3.7,1.91 -6.13,-7.2l-10.66 0c-5.53,13.7 -17.55,-2.43 -31.28,0.33 -15.38,3.09 4.82,3.36 -16.73,5.01 -9.86,0.75 -10.07,-1.13 -19.54,1.81l-43.5 20.82c-3.73,2.88 -0.71,2.15 -5.96,4.14 -9.86,3.73 -12.64,-3.39 -16.37,-10.75l-11.29 -20.71c-21.16,-29.97 -3.18,-14.11 -17.53,-33.27l-8.19 -16.46c-4.47,-10.07 -7.99,-5.92 -8.31,-20.25 -29.49,0 -10.52,7.07 -27.16,26.2l-18.36 16.3c-0.53,0.56 -1.99,2.29 -2.4,2.93 -2.62,4.1 -1.77,-1.02 -2.75,7.91l-8 0c-1.43,13.04 -0.35,4.59 -10.71,13.29 -5.26,4.41 -10.01,11.78 -17.69,14.51l-80.59 -19.4c-18.88,0.42 -7.94,6.21 -22.47,5.61 -11.2,-0.45 -18.21,1.88 -28.74,4.48 -12.62,3.11 -20.06,2.46 -29.83,10.18 -0.62,0.48 -2.33,1.91 -2.98,2.36 -14.8,10.32 -30.89,13.91 -42.82,29.18 -9.21,11.8 6.3,-10.39 -2.29,3.04 -4.61,7.22 -3.17,-1.44 -4.57,11.43 -10.49,0.23 -6.26,-0.73 -13.34,2.66 0,10.53 -0.84,10.83 -2.67,18.67 -17.46,-4.06 -8.58,-1.67 -13.41,-8.71 -7.94,-11.57 -43.97,-14.11 -57.02,-14.23l-11.27 2.53c-0.5,0.22 -1.18,0.62 -1.7,0.84 -9.49,3.99 -16.22,3.06 -20.45,11.78 -3.04,6.29 -3.61,14.83 -4.03,20.36 -0.53,7.16 4.11,-0.68 -1.85,8.37 -4.41,6.71 -6.03,7.09 -14.64,7.03 -24.29,-0.21 -56.1,1.84 -81.01,-3.96l6.72 -34.4 -7.44 -23.56c-0.84,-1.18 -9.33,-11.23 -9.76,-11.57 -5.57,-4.43 -18.65,-6.61 -23.03,-8.98 -10.75,-5.83 -15.84,0.38 -19.84,-9.51 -16.7,1.39 -5.23,7.12 -26.66,5.34 -1,-12.11 -1.92,-35.5 -8.38,-44.96 -0.31,-0.47 -0.81,-1.08 -1.13,-1.55 -0.32,-0.45 -0.79,-1.09 -1.1,-1.56 -22.58,-32.45 -14.34,-11.75 -37.72,-31.63 -7.39,-6.28 -23.74,-4.71 -33.47,-9.3 -11.06,-5.2 -15.06,-1.69 -23.86,1.91 -11.44,4.67 -12.9,3.18 -25.07,10.1l-10.57 5.04c-5.21,3.38 -12.69,18.33 -17.07,25.58 -3.15,5.18 -9.49,25.55 -9.66,33.02 -6.56,0.72 -4.11,1.39 -5.96,2.03 -14.74,5.14 -22.88,4.16 -36.94,13.74 -2.35,1.6 -2.48,1.42 -4.63,3.37l-4.98 5.7c-13.64,16.32 -14.46,22.78 -8.24,43.92 3.38,11.46 10.09,20.31 10.09,32.6l-96.17 -1.19c-38.76,-1.78 -20.12,4.18 -88.72,-3.51 -10.93,-1.22 -13.46,0.46 -21.74,0.56l-75.27 0.22c-2.54,0.16 -7.65,0.54 -9.04,0.13 -6.63,-1.91 -2.15,3.11 -5.11,-4.22 -11.18,-3.7 -1.11,2.36 -3.52,-7.86 -2.1,-8.86 -9.96,-21.09 -18.32,-26.57l-5.1 -3.05c-11.41,-4.14 -26.87,1.97 -37.06,2.82 -2.83,-10.59 -2.15,-5.28 -8.78,-12.56 -10.03,-11.02 1.59,-7.22 -12.57,-8.77 -1.91,-17.64 -10.19,-2.81 -10.66,-24 -12.6,-1.05 -8.77,-4.19 -16.08,-10.59l-40.67 -22.56c-0.41,-0.13 -1.18,-0.31 -1.57,-0.43 -0.64,-0.19 -2.39,-0.52 -3.02,-0.72 -0.36,-0.11 -1.11,-0.31 -1.46,-0.44l-20.42 -5.89c-2.45,-0.47 4.74,-1.11 -6.49,-0.67l-16.89 1.52c-0.32,-0 -1.1,-0.06 -1.43,-0.09l-24.51 0.43c-31.09,9.43 -5.11,1.83 -28.35,14.54l-34.53 16.14c-0.57,0.24 -1.26,0.59 -1.81,0.86l-3.3 2.03c-5.35,3.21 0.73,0.24 -4.83,3.18l-60.78 -56.57c-3.15,-6.66 -1.54,-6.7 -6.71,-11.88l-12.51 -6.23 -4.01 9.04c-3.17,13.56 -2.59,13.62 -13.75,23.85l-2.91 2.45c-1.94,1.57 -4.47,3.31 -6.14,4.52l-3.11 2.23c-0.45,0.33 -1.08,0.8 -1.53,1.14l-36.51 17.29c-11.31,3.71 -2.81,4.6 -15.53,4.16 -19.56,-0.68 -52,-3.41 -70.52,2.67 -0.65,0.21 -1.31,0.5 -1.97,0.69 -4.33,1.29 -4.63,0.88 -8.83,1.85l-37.56 14.31c-0.45,0.1 -1.26,0.09 -1.73,0.15 -1.29,0.2 0.04,-1.34 -6.89,0.98 -7.93,2.64 -1.38,0.65 -4.99,2.51 -13.63,7.03 -19.88,2.33 -21.39,16.16 -12.82,1.41 -3.24,-0.47 -9.43,3.9 -3.66,2.59 -2.53,2.35 -4.13,3.87 -0.41,0.37 -0.96,0.93 -1.35,1.31l-7.86 8.14c-3.07,4.08 -1.91,1.32 -3.89,6.78l-8.01 0c-3.79,-14.23 -6.51,-7.55 -18.18,-13.82 -5.31,-2.85 -11.55,-7.52 -21.82,-7.52 -13.81,0 -6.93,0.54 -12.99,3.02l-37.69 20.99c0.3,13.33 5.03,18.67 5.33,32l-84.79 0.23c-4.18,0.23 -16.2,-3.99 -23.79,-2.04 -7.55,1.94 -13.77,0.05 -18.59,-1.42l-15.24 0.18c-33.08,10.04 -59.55,-1 -91.16,-0.94 -8.47,0.03 -1.44,2.17 -10.96,-2.03 -0.53,-0.23 -1.16,-0.71 -1.7,-0.97l-7.74 -3.2c-9.19,-1.61 -12.34,1.71 -18.15,-0.66l-35.5 -24.94c-0.05,-0.14 -2.36,-8.7 -2.96,-10.77 -2.96,-10 -11.76,-19.95 -3.19,-32.4 5.38,-7.82 12.26,-9.28 15.07,-17.04 3.94,0.91 8.3,1.88 12.45,3.55 0.59,0.23 1.3,0.57 1.86,0.82l7.03 3.63c14.62,-21.84 11.4,-13.75 -5.02,-24.32 -12.48,-8.03 1.53,-5.05 -13.78,-10.22 -5.25,-1.78 -15,-3.38 -19.35,-4.65l-16.03 -7.99c-7.08,-2.26 -15.85,-0.55 -23.32,-0.7 -17.52,-0.35 -9.03,-2.07 -19.59,-4.61l-16.69 2.78c-10.43,4.93 -5.19,2.01 -19.58,1.69 -1.62,6.04 -4.41,10.91 -9.25,14.76l-4.86 3.14c-6.37,3.33 3.39,1.99 -9.9,3.43 -0.45,19.87 0.03,1.73 -6.64,17.37 -3.94,9.24 -7.45,14.45 -8.41,24.21 -1.32,13.37 2.19,24.92 -0.96,38.44 -14.1,1.17 -28.2,0.69 -41.64,6.35l-5.49 2.52c-0.55,0.27 -1.25,0.6 -1.79,0.87 -30.68,15.3 -23.42,29.87 -30.92,37.22l-10.84 6.38c0,22.11 -3.1,26.54 6.89,41.13 6.98,10.18 7.81,22.16 18.11,29.9 9.71,7.29 18.43,15.89 31.28,17.09 16.3,1.51 10.72,-3.56 18.89,-4.18 10.22,-0.77 0.92,3.71 18.18,4.09 -3.45,7.19 -0.32,13.04 1.58,19.83 2.81,9.96 -0.86,14.19 -1.58,22.85l18.49 18.85c1.91,3.17 1.7,-2.78 2.85,7.82 10.55,0.87 6.73,0.55 14.63,6.88 15.36,12.3 54.98,9.33 76.67,4.18 8.06,-1.91 6.74,-1.18 12.09,-1.43 11.26,-0.55 1.56,4.08 9.99,-2.76 8.05,-6.55 0.04,-2.72 7.56,-8.6 12.03,-9.41 18.67,-4 20.42,-24.94l-5.26 -2.73c-7.24,-2.8 -5.68,0.66 -13.8,-2.49 -7.51,-2.92 -18.63,-15.41 -19.97,-23.76l1.7 -29.7c17.17,0 29.25,3.27 42.54,2.53 7.25,-0.41 6.85,-0.99 10.89,-0.97l16.59 -0.68c31.99,-10.09 56.97,-0.37 63.92,0.14l3.02 -0.34c0.43,-0.09 1.16,-0.45 1.62,-0.59 26.66,-7.42 79.6,-2.7 109.51,-2.83 18.17,-0.08 24.36,2.83 42.55,2.8 15.41,-0.05 31.54,-1.88 40.07,-0.07 1.28,15.36 5.62,32.8 16.86,39.14 12.19,6.89 32.79,5.19 44.65,6.04 9.53,0.68 9.07,-0.9 15.81,2.85 4.83,2.69 -0.23,-0.33 4.38,3.63 12.7,10.87 27.91,31.48 43.46,36.54l38.15 15.39c7.77,1.18 8.08,-0.02 12.71,-2.25 1.15,13.74 5.17,9.79 17.83,14.19 0.63,0.22 1.31,0.5 1.95,0.71 19.61,6.58 37.41,6.44 57.58,6.44 10.51,0 0.42,-0.86 9.68,-3.65 10.07,-3.04 10.91,1.44 14.33,-7.02 8.44,0 15.1,1.31 20.56,-3.05 6.04,-4.82 8.19,-4.63 13.67,-1.85 0.52,0.27 1.15,0.73 1.67,1 0.53,0.28 1.15,0.72 1.67,0.99l3.47 1.86c20.81,9.87 21.51,18.1 36.3,19.72 1.2,10.98 9.21,16.67 17.33,22.85 5.87,4.46 2.15,0.08 4.68,4.37l7.38 12.56c12.48,14.14 25.02,14.87 29.19,-7.86l19.71 -36.3c2.04,-2.33 1.79,-2.12 3.75,-4.25 5.61,-6.11 10.15,-11.02 16.64,-15.37 6.55,1.53 3.25,1.03 5.75,2.25 12.08,5.95 30.2,9.75 42.39,10.96l50.55 2.79c31.5,0 19.41,-0.76 26.2,-3.14 6.08,-2.14 0.32,-0.65 8.4,-2.26 7.45,-1.49 8.58,-1.07 16.03,-2.64 5.15,-1.1 4.62,-0.62 8.36,-2.33 6.38,-2.92 8.27,-7.97 15.07,-9.32 9.24,-1.84 8.94,0.75 26.39,-18.53 0.53,-0.58 2.01,-2.23 2.49,-2.85l6.4 -14.93c10.09,2.35 6.9,3.88 18.88,5.28 15.37,1.79 19.03,-0.01 23.91,-2.31l5.74 -2.32c10.35,-2.73 9.83,0.59 18.79,-5.35 6.37,-4.23 13.41,-11 16.4,-18.38 0.26,-0.62 0.57,-1.31 0.75,-1.97 1.54,-5.17 0.21,-24.64 3.54,-38.96 12.48,0 30.18,2.14 41.59,-1.14 19.09,-5.52 13.85,-1.57 32.75,-2.36 15.64,-0.66 18.94,5.94 36.95,-0.05l80.74 0.89c9.51,0 15.69,2.04 20.87,1.96 24.32,-0.39 27.5,-2.46 56.06,-0.31l24.41 9.02c-12.82,4.64 2.15,0.69 -10.67,5.33l0 8.01c8.21,2.73 2.57,0.59 2.74,26.56 0.08,11.35 1.76,8.71 2.59,18.77 12.62,1.38 3.34,-0.52 9.45,3.88 7.21,5.19 -0.49,-0.7 5.36,5.31l30.53 33.47c7.72,0 14.59,-0.13 21.94,-0.61l15.39 -4.73c3.19,7.88 -5.95,4.15 8.01,5.33 0,5.37 -0.57,10.09 0.9,15.1l6.05 9.95c5.65,7.42 8.11,8.99 9.05,20.29 10.89,0.91 10.65,0.54 13.34,7.99 20.25,0 14.32,0.06 18.26,4.54 6.13,6.96 14.03,5.55 23.85,4.11 2.97,-0.45 13.5,2.88 20.54,-1.8l5.78 -5.08c17.2,-16.31 14.43,-22.44 20.99,-32.61 7.93,-12.25 2.01,-11.51 5.03,-22.48l1.56 -5.36c20.95,0 9.53,3.07 19.79,6.11 3.94,1.16 14.23,-0.78 22.89,-0.78 0.19,-0.34 0.3,-0.98 0.39,-1.1l2.37 -2.72c11.13,-5.86 17.03,2.13 18.59,-12.18 9.82,-1.07 5.28,-1.01 9.57,-3.76 13.27,-8.54 23.17,-18.2 21.29,-33.95l-1.66 -8.28c-0.02,-0.33 -0.04,-1.1 -0.04,-1.42 0.01,-0.33 0.12,-1.1 0.15,-1.43l1.35 -6.3c1.77,-12.95 -10.52,-29.63 -22.66,-32.88l0 -5.34c20.43,-4.76 75.5,0.3 104.02,2.68 1.04,4.46 0.95,5.04 2.08,8.59 1.44,4.48 -0.34,-0.22 1.43,3.91 0.24,0.57 0.57,1.26 0.85,1.82l24.98 36.35c24.41,0 49.84,-9.54 61.44,7.84 1.99,3.01 0.1,-1.32 2.82,5.23 5.67,13.74 6.09,20.33 19.61,28.41 1.47,0.88 3.92,2.25 5.11,2.89l21.73 12.93c9.26,5.76 12.63,2.97 20.96,8.38 0.53,0.36 6.99,5.97 7.22,6.11 2.39,1.53 0.93,0.9 5.44,2.57 17.2,6.34 26.82,13.84 50.32,13.7 27.36,-0.16 41.29,4.95 63.31,-6.14l8.92 -4.67c23.2,-8.79 28.58,19.03 50.49,21.43 1.49,13.53 9.11,8.71 12.36,15.81 3.51,7.7 11.1,12.55 18.73,16.63 1.27,0.68 -5.06,1.24 6.25,2.23 0.69,8.36 2.06,12.39 5.84,18.16 5.92,8.99 3.98,2.44 9.23,12.14 4.6,8.5 -0.43,23.04 14.27,23.04 18.11,0 9.32,-23.36 15.34,-38 7.61,-18.5 21.45,-31 35.56,-44.46 0.39,-0.38 0.97,-0.93 1.35,-1.31l7.23 -8.78c4.26,-5.07 10.12,-12.64 16.51,-14.79l3.36 -0.61c0.01,0 6.83,1.26 8.67,1.26 28.21,0 27.67,-5.87 36.84,-6.42 0.62,-0.04 4.63,1.09 5.83,1.09 22.26,0 36.81,-8 61.34,-8 0.2,-0.35 0.29,-1.01 0.38,-1.13l10.3 -4.21c1.29,-14.89 -0.44,-4.58 5.63,-6.49l5.56 -1.16c0.55,-0.17 1.29,-0.51 1.83,-0.71l10.33 -3.37c7.02,-0.96 13.74,-5.83 18.9,-12.69 17.03,-22.63 26.7,-12.47 43.08,3.08 13.46,-1.12 22.46,-2.67 40.01,-2.67 1.23,-14.7 13.93,-20.99 29.33,-21.34 0.52,-23.27 11.27,-11.56 12.52,-30.8 0.09,-1.26 0.04,-9.03 -0.03,-9.64 -1.62,-13.49 -7.15,-4.63 -7.15,-23.56 8.94,0 17.85,-0 26.77,0.1 36.49,0.44 12.32,-12.53 77.69,-8.95l28.41 2.81c25.05,2.64 30.59,4.88 58.51,2.44l72.88 -1.91c14.93,-1.97 36.3,9.63 47.79,-2.49 3.18,7.88 -5.96,4.14 8,5.34l0 7.99c-10.25,1.13 -5.59,-2.23 -9.61,6.39 -7.16,15.28 -7.22,48.34 -2.95,64.85 2.46,9.55 6.87,5.76 7.23,22.11 12.96,0.28 14.82,-0.17 16.01,10.67 10.52,0.88 15.46,5.84 23.52,4.76 7.1,-0.95 10.67,-4.76 21.81,-4.76 1.05,4.49 2.28,9.91 4.19,14.62 3.84,9.48 1.86,-1.75 4.34,10.76 2.09,10.52 -2.24,9.72 7.34,20.04l17.79 16.94c12.16,15.15 49.35,13.68 63.79,0.42l14.02 -12.65c0.52,-0.58 1.89,-2.36 2.39,-2.94 3.39,-4.01 6.88,-6.76 8.41,-12.94 11.63,-46.72 -30.61,-36.9 51.09,-36.9 11.89,0 -1.48,-0.25 9.57,-3.77 19.41,-6.18 15.52,-1.99 24.24,-21.1 3.07,-6.73 11.54,-13.63 11.54,-20.47 0,-43.07 -20.78,-47.26 -21.34,-72.01 53.59,0 36.97,-3.99 53.34,8.01 5.99,-8.17 9.8,-5.49 24.05,-5.56 9.3,-0.03 18.15,-2.24 21.3,5.56 15.93,-1.33 9.5,-3.96 18.68,-10.67 2.55,6.31 2.66,3.47 8.52,3.38 0.25,-0.01 1,-0.1 1.26,-0.1l62.52 1.32c12.44,-1.06 28.62,-2.75 45.04,0.73l0 48.01 22.33 20.35c0.29,0.19 10.84,10.47 18.69,13.32 34.99,12.72 51.97,-10.11 55,-12.33 10.12,2.35 13.65,5.65 21.41,10.61l6.6 4.05c6.32,4.32 6.42,6.24 12.11,9.23 5.44,2.87 9.4,3.01 15.76,5.79l28.9 8.35c9.37,2.96 11.41,1.16 18.58,2.25 0.26,0.05 0.99,0.2 1.26,0.28l5.78 3.73c7.39,3.98 18.89,1.92 27.59,1.74l29.62 0.73c0.44,0.07 1.25,0.23 1.71,0.29 1.92,0.22 14.09,-0.49 14.7,-0.42 10.88,1.25 12.56,10.63 29.37,12.04 1.41,12.94 13.32,17.71 25.58,22.43l11.76 4.24 0 16 8.01 0c0.99,9.05 7.29,11.98 11.07,19.47 2.13,4.2 0.6,9.87 15.6,9.87 6.54,0 4.57,-7.86 5.21,-10.56l0.71 -3.14c0.09,-0.42 0.32,-1.19 0.4,-1.62 11.93,-62.42 11.44,-26.84 19.97,-54.89 2.3,-7.55 -4.58,-6.79 11.04,-7.14 0.28,-12.62 -1.05,-5.96 3.58,-12.43l25.76 -22.24c4.43,2.34 1.35,1.48 6.49,4.38 9.21,5.22 20.04,2.11 32.52,7.25l10.73 5.31c8.81,3.32 22.4,1.69 32.96,1.75 5.29,0.02 13.72,0.44 18.68,-0.13l26.46 -7.88c40.01,-21.42 24.78,-10.2 38.5,-15.32l4.67 -2.84c12.78,-9.22 18.56,-12.83 34.37,-16.52 5.21,14.38 31.58,10.83 42.83,7.74l27.34 -17.59c4.31,-5.3 9.21,-13.69 17.85,-16.83l0 -31.99c36.69,-19.42 22.21,-5.34 45.34,-5.34l53.24 -2.28c9.9,0.13 8.92,2.28 21.44,2.28 16.99,0 22.84,-3.11 37.37,-2.83 20.43,0.4 35.33,4.69 55.13,2.17 28.07,-3.59 54.3,0.67 83.54,0.67 -4.1,3.88 -4.47,2.7 -5.34,10.67 -10.49,1.14 -12.7,10.58 -15.51,24.49 -2.36,11.67 -1.58,29.43 4.22,37.47 0.32,0.45 0.85,1.03 1.19,1.48l9.87 11.47c0.39,0.38 0.97,0.92 1.36,1.3 0.41,0.38 0.96,0.93 1.37,1.29 0.59,0.53 2.22,2.02 2.85,2.48l3.23 2.12c15.02,8.19 23.91,-0.06 37.54,4.91l5.29 2.86c0.76,0.36 2.93,1.41 3.69,1.69 6.29,2.25 0.92,1.11 8.91,1.78l7.81 -8.19c4.27,-2.82 6.31,-2.96 10.86,-5.14l10.35 29.66c1.63,4.33 -1.63,0.34 2.27,5.74 4.84,6.7 -4.07,3.21 8.72,4.61 1.43,13.04 2.32,6.87 14.14,12.59 0.18,0.08 6.12,4.07 8.39,5.27l25.35 3.73c13.43,0.77 18.45,-4.05 28.87,-9.07l11.57 -5.68c0.25,-0.19 0.82,-0.69 1.08,-0.9 7.57,-6.17 10.92,-11.27 10.67,-19.5 -0.65,-21.04 -4.69,6.37 -0.92,-6.87 0.69,-2.39 6.39,-2.9 7.56,-16.89 15.22,0 18.44,2.67 34.67,2.67 41.62,0 9.89,-10.05 37.33,-10.66 1.84,-16.78 4.39,0.86 7.2,-18.7l0.56 -7.01c0.13,-0.34 0.44,-1.06 0.63,-1.35 0.34,-0.54 3.06,-2.62 3.9,-3.21 8.47,-6.03 -7.71,2.4 3.72,-1.73l0 -8.01c-9.37,-3.77 -3.36,1.86 -5.99,-13.06l-1.39 -7.84c-0.03,-0.33 -0.11,-1.05 -0.13,-1.35 -0.01,-0.27 0.04,-0.98 0.04,-1.24 0.36,-16.81 3.36,10.18 0.58,-5.36 -1.14,-6.45 -5.33,-9.42 -11.78,-11.14l0 -5.34c36.15,-3.01 21.32,-0.25 45.73,-0.64 5.1,-0.08 11.46,-2.03 20.94,-2.03 16.48,0 27.54,2.35 43.26,-1.8l15.23 -1.03c11.48,-0.21 8.25,-1.48 16.66,-2.19 12.63,-1.07 41.52,5.67 55.35,4.16 14.17,-1.55 -2,-6.32 10.73,-1.43 14.96,5.77 9.11,22.05 14.22,30.7 8.83,14.93 24.24,24.57 42.19,26.64 11.24,1.29 22.52,2.59 26.4,-7.05 18.97,0 16.24,2.39 27,13.01l37.91 23.61c0.45,0.27 1.14,0.7 1.6,0.93 5.23,2.4 20.49,0.14 29.06,1.44 6.88,1.06 14.84,8.12 25.6,2.27 17.31,-9.42 13.29,1.88 28.89,-0.3 22.68,-3.18 32.4,-16.77 57.36,7.65 7.56,7.4 16.62,19.55 27.28,20.72 1.18,14.26 12.8,18.28 20.85,27.19l3.68 4.56c6.13,6.38 16.15,10.92 16.36,-3.86 0.14,-9.34 -4.14,-0.75 1.6,-7.86 0.16,-0.19 0.79,-0.7 0.94,-0.9 0.18,-0.23 0.78,-0.77 0.95,-1 0.17,-0.24 0.69,-0.89 0.84,-1.15l1.36 -4.34c0.04,-0.38 0,-1.24 0,-1.63 -0.02,-6.28 -0.08,-0.08 -0.79,-4.66 -0.9,-5.87 -2.8,1.61 -0.46,-3.69 4.95,-6.75 9.73,-10.4 21.34,-10.67 1.25,-15.09 14.16,-22.71 25.56,-30.48 13.98,-9.53 19.07,-8.02 31.89,-7.71l32.36 7.91c-0.09,0.28 -0.77,2.14 -0.86,1.72 -0.1,-0.47 -0.71,1.24 -0.96,1.89 9.44,-0.78 5.9,-1.78 12.98,-1.6 3.41,0.09 7.14,1.6 13.7,1.6 13.99,0 18.99,-2.74 29.33,-2.38 31.15,1.12 8.38,-5.83 41.64,-6.23 3.17,-0.05 1.36,0.7 5.78,-0.25 17.48,-3.79 -2.12,-7.14 24.59,-7.14l0 -8c15.23,-1.67 1.59,-3.5 16.99,-8.44 6.48,-2.07 0.1,1.71 6.78,-1.35 16.84,-7.69 8.23,-2.6 19.71,-5.67 5.58,-1.49 -3.55,-1.03 9.92,-3.02 3,-0.44 7.48,-0.2 10.61,-0.2 1.37,-12.58 2.1,-4.47 7.54,-13.5 1.18,-1.98 1.16,-2.88 2.06,-5.83 0.12,-0.38 0.24,-1.17 0.36,-1.54 7.5,-23.1 3.37,-9.68 3.37,-35.12l24.36 2.07c19.2,3.38 32.86,0.94 53.9,0.62 -1.54,-7.66 -2.64,-15.24 -3.28,-22.68 -22.05,-6.37 -38.1,2.36 -48.63,2.49l-175.71 -1.16c-18.7,0 -43,-3.98 -59.07,2.29 -9.05,3.52 -0.71,2.99 -10.29,0.67l-3.98 -1.29c-14.29,-4.35 -9.16,-1.66 -20.28,-12.06 -11.68,-10.91 -7.88,-12.48 -18.38,-13.63 0.36,-16.34 5.19,-16.24 8,-24.01zm-4923.42 24.01c10.91,-3.95 -0.75,0.51 10.07,-6.11 0.44,-0.26 1.06,-0.77 1.5,-1.01 0.41,-0.23 1.08,-0.68 1.5,-0.86l61.77 -2.51c20.44,-0.13 10.99,-2.08 23.84,-5.51l3.01 3.64c0.15,0.23 0.62,0.93 0.74,1.14 0.13,0.18 0.53,0.94 0.62,1.1l0.96 2.12c22.72,0 51.17,-10.68 76.95,3.06l39.99 29.35c7.92,6 7.67,6.17 8.41,12.92 10.62,0.89 8.7,1.09 13.34,8.01 -15.61,0 -18.19,-2.34 -31.93,-2.76l-97.93 0.66c-11.01,-1.51 3.92,-3.24 -8.83,-3.24l-37.35 0c-34.18,0 -12.17,2.28 -50.63,0l-55.09 0.54c-26.91,-0.58 -4.8,1.76 -20.24,4.36 -11.49,1.93 -22.3,-6.95 -31.39,-10.23 0,-45.31 -5.78,-16.94 -8,-37.34 13.77,-14.51 17.97,-1.95 33.96,-4.22l10.07 -2.1c40.93,-0.08 36.59,-3.58 54.66,8.98zm1818.95 -24.01c1.76,-7.58 2.44,-10.85 8.06,-15.94l10.18 -8.48c4.77,-4.34 1.57,-1.99 7.33,-6 12.71,-8.84 26.73,-25.19 34.98,-31.7 6.84,-5.39 7.06,-2.28 25.75,-11.61l26.8 -7.82c0.73,-0.19 1.39,-0.37 2.17,-0.52 4.77,-0.96 7.79,-0.18 12.35,-1.07 16.2,-3.19 1.28,-6.47 17.56,-5.99 19.43,0.57 20.64,-2.05 30.91,3.49 0.51,0.28 1.18,0.7 1.7,1l14.91 6.62c10.54,2.55 8.96,-0.6 19.51,9.83 1.74,1.71 5.55,5.26 6.9,6.44l2.93 2.4c0.41,0.37 1.03,0.86 1.43,1.24l8.38 10.3c12.19,13.93 27.49,8.08 18.85,45.15 -19.2,0 -32.97,-0.58 -48.4,-2.28 -8.08,-0.89 -15.92,0.18 -23.72,-0.28 -17.66,-1.02 -8.79,-5.45 -18.56,-5.45 -49.95,0 -52.24,11.69 -72,13.34 -1.55,14.15 -6.46,9.86 -13.65,16.92 -0.42,0.41 -1.25,1.69 -1.69,2.08 -5.26,4.8 -8.14,3.33 -12.06,7.3 -0.41,0.41 -1.17,1.74 -1.55,2.22 -0.2,0.25 -0.57,0.95 -0.78,1.21 -0.23,0.29 -0.67,0.96 -0.91,1.26 -0.43,0.5 -1.78,2.07 -2.32,2.57l-12.39 6.44c-2.81,-7.76 -5.2,-13.37 -11.75,-17.58 -6.43,-4.11 -10.71,-0.3 -12.25,-14.41 -16.05,-1.35 -6.03,-6.1 -18.67,-10.68zm-1146.84 -8c-15.06,3.51 -11.27,0 -29.33,0 -6.07,-11.46 0.71,-4.84 -8.01,-8l0 -5.33c16.99,-6.35 -6.24,-8.01 26.67,-8.01 0.91,10.88 1.36,10.86 10.67,13.34l0 8zm-304.04 -29.34c1.21,-11.02 4.59,-12.73 17.12,-17.55 13.01,-5.01 4.89,0.45 12.6,-6.07l5.19 -5.48c0.38,-0.39 0.92,-0.98 1.31,-1.37 32.99,-33.47 21.57,-12.83 40.78,-23.21l6.49 -4.19c0.57,-0.26 1.3,-0.53 1.91,-0.76l14.04 -4.62c16.59,-6.67 12.15,-0.84 26.45,-5.56 8.45,-2.79 -4.65,-3.21 7.46,-3.21 24.78,0 5.51,-0.35 15.54,3.15 6.18,2.15 0.32,0.62 8.43,2.23 16.24,3.25 42.19,12.06 52.43,22.27 26.14,26.1 4.22,26.42 27.63,28.37l3.47 12.57c0.27,0.54 0.7,1.18 0.99,1.71 10.15,18.23 8.49,8.95 6.21,36.39 -13.1,1.09 -4.88,2.48 -16.82,0.68 -48.38,-7.32 -72.5,10.65 -85.23,-13.32 -1.48,-2.8 -1.3,0.1 -1.97,-6.03 -10.87,11.46 -6.82,3.21 -12.25,2.3 -0.4,-0.07 -1.19,-0.33 -1.58,-0.36l-6.21 0.84c-17.73,3.48 -11.57,0.85 -26.96,11.55l-31.57 30.06c-0.19,0.21 -0.68,0.85 -0.89,1.03 -2.81,2.56 2.01,1.91 -5.87,2.6l0 8 -17.6 -11.74c-0.47,-0.32 -1.13,-0.75 -1.61,-1.05 -20.71,-13.64 -26.7,-26.15 -39.46,-27.22 -1.19,-10.84 -3.05,-10.37 -16.01,-10.67 0,-16.09 -1.96,-20.94 16.01,-21.34zm2629.74 -8c26.78,-2.23 33.16,-16.45 48.64,10.42 6.92,12.03 -0.21,11.98 -3.98,15.58 -6.85,6.54 -12.47,8.67 -23.34,8.67 -32.16,0 -23.13,-13.03 -21.33,-34.67zm-887.34 4.46c10.11,1.09 11.35,5.21 23.21,6.2 0.17,7.69 -1.27,5.66 1.94,11.4 3.19,5.65 -0.03,2.4 6.05,4.61l0 13.33c-12.94,0.29 -43.16,9.14 -49.92,-16.78l1.02 -10.64c4.89,-5.75 11.48,-8.78 17.7,-8.11zm-659.57 8.87c7.38,0.81 7.44,0.01 14.89,9.11 4.41,5.39 5.42,5.23 6.45,17.55 -10.54,0 -66.68,5.71 -66.68,-15.99 0,-19.1 8.06,-17.71 35.82,-17.69 12.87,0 8.14,-5.61 9.52,7.01zm-1477.56 -5.33c12.63,-4.9 30.38,-2.87 42.67,0l3.75 12.05c4.84,5.08 7.82,4.35 17.59,6.62 -11.83,17.66 -6.81,11.21 -31.56,13.82 -11.99,1.26 -32.51,7.73 -33.77,-10.86l1.33 -21.63zm1785.21 127.08c-0.43,-0.35 -1.1,-0.78 -1.53,-1.13 -0.44,-0.34 -1.09,-0.79 -1.52,-1.15 -0.42,-0.36 -1.06,-0.83 -1.47,-1.19l-22.55 -25.46c-19.29,-17.73 -23.97,-33.37 -53.02,-48.33l-14.21 -9.82c-8.55,-7.44 -15,-11.04 -27.56,-8.5l-5.66 0.72c-29.04,-4.03 -23.36,-1.18 -36.34,0.06l-15.68 -0.35c-15.19,-4.08 -15.57,0.5 -23.49,1.09 -0.76,0.06 -5.49,-0.37 -6.13,-0.41 -5.59,-0.39 -10.03,-0.62 -15.74,-0.64 -9.79,-0.02 -19.6,0.05 -29.41,0.05l8.57 -18.41c0.2,-0.26 0.66,-0.94 0.84,-1.22 3.63,-5.53 7.79,-14.21 17.27,-15.04 0.69,-6.3 1.04,-3.79 1.97,-6.03l1.74 -3.6c0.25,-0.56 0.68,-1.18 0.92,-1.75 2.59,-5.95 2.76,-5.11 3.38,-12.62 10.06,-0.21 14.11,-1.92 21.19,-8.16 9.3,-8.22 13.91,-11.63 27.53,-13.69 11.38,-1.73 11.71,-6.37 23.99,-6.58 27.43,-0.48 40.68,-0.1 69.38,9.05 21.24,6.77 18.04,9.2 34.74,15.93l16.83 9.84c6.12,5.69 3.59,6.32 12.99,11.02l18.28 8.39c5.96,4.4 6.92,7.32 7.12,16.88 9.78,0.81 13.04,4.59 18.81,10.52 0.39,0.38 0.92,0.99 1.31,1.37 11.57,11.36 -9.41,-8.49 2.81,2.52 7.28,6.55 8.08,2.92 9.08,14.92l8 0c1.23,14.68 19.02,27.05 28.49,38.19 7.4,8.71 19.14,14.91 26.48,24.2 4.86,6.15 3.43,-0.46 3.71,12.28 8.8,0.74 21.62,8.51 30.15,12.59 0.58,0.28 1.23,0.67 1.8,0.95 5.33,2.68 14.86,8.12 22.84,-1.29 3.46,-4.09 1.89,-1.38 3.88,-6.91 8.09,0 13.43,0.96 19.67,1.42 12.35,0.92 2.07,-1.42 15.01,-1.42 13.04,0 2.66,2.53 15.41,1.84l38.21 0.71c13.02,0.63 11.05,-1.46 21.77,-0.62 17.28,1.35 34.58,3.41 49.95,3.41 -3.49,13.07 -5.29,23.33 -14.47,33.54 -2.3,2.58 -3.62,4.67 -5.85,7.48l-17.67 14.34c-3.71,2.48 -5.16,2.83 -8.43,7.56 -1.41,2.03 -3.24,6.97 -4.26,9.09 -14.33,-0.32 -14.7,1.11 -27.43,7.23 -9.78,4.7 -8.53,0.75 -21.91,10.22l-6.49 3.79c-13.19,5.28 -5.32,-0.44 -16.28,5.16 -6.46,3.29 6.06,-0.59 -7.63,3.39 -10.46,3.02 -11.44,-0.45 -21.6,-0.45 -14.81,0 -16.64,7.19 -30.02,0.88 -13.59,-6.41 8.42,4.16 -3.66,-1.83l-3.63 -1.86c-1.86,-0.87 0.76,-0.47 -5.56,-2.5 -22.46,-7.2 6.82,7.82 -38.1,-12.4l-34.71 -15.98c-6.25,-6.77 -11.28,-9.93 -12.34,-19.65 -18.6,-1.55 -24.45,-17.4 -32.65,-31.36l-17.09 -20.26zm1890.87 -106.08c-8.29,1.58 -6.12,4.77 -8.86,-2.33l-5.33 0c0.23,-0.64 0.87,-1.37 1.06,-1.74l-6.4 -19.6c3.23,-4.41 2,-2.96 6.19,-7.16 7.99,-8.02 10.32,-6.18 25.83,-6.18 3.53,13.22 4.98,5.95 12.17,14.49 4.71,5.59 3.83,0.37 3.83,20.18l-28.48 2.33zm1476.71 -45.01c13.59,-0.33 5.57,1.19 7.99,-5.33l16.01 0c2.49,6.17 4.22,4.35 10.63,10.71 3.16,3.13 5.46,6.79 8.04,10.63l-4.22 6.45c-3.25,5.77 -2.67,-0.62 -3.79,9.55 -14.4,1.2 -14.16,3.45 -15.99,8.01 -13.26,-3.54 -2.98,-5.34 -24.41,-6.54l5.74 -1.47 0 -32.01zm-4724.27 222.08c-7.84,-5.03 -5.63,-0.21 -15.09,-3.69l-24.78 -12.28c-5.64,-4.68 -10.21,-10.72 -15.94,-16.05 -2.78,-2.58 -6.1,-5.16 -8.42,-7.59 -2.04,-2.12 -3.94,-4.93 -5.91,-7.43l-31.17 -27.51c-5.45,-8.48 2.49,-2.23 -5.87,-10.29 -6.24,-6.02 -13.99,-2.78 -25.33,-14.48 -5.49,-5.67 -10.01,-10.96 -16.17,-15.85 -3.07,-2.44 -5.57,-4.1 -8.96,-7.05l-13.14 -10.85c-0.51,-0.3 -1.2,-0.67 -1.71,-0.96 -0.53,-0.29 -1.23,-0.63 -1.76,-0.91l-10.3 -5.71c-3.17,-2.1 -6.99,-4.93 -9.19,-6.85 -9.28,-8.1 -6.49,-7.79 -16.63,-9.6 -10.39,-1.86 -6.84,-6.65 -16.99,-10.08 -21.49,-7.26 -31.84,8.03 -73.24,1 -16.95,-2.88 -35.72,5.78 -50.57,-2.56 2.14,-7.98 0.48,-3.84 5.74,-10.26l36.06 -33.15c7.13,-5.05 12.53,-11.48 21.09,-13.29l14.74 -6.94c17.66,-12.86 57.82,-15.67 79.83,-13.8 14.41,1.23 7.06,1.6 12.57,3.43l55.51 21.85c0.45,0.33 1.05,0.83 1.49,1.17l75.85 57.71c4.87,4.63 5.5,4.07 3.84,11.96 17.44,4.06 23.48,9.2 33.58,22.42 29.96,39.21 42.22,17.69 43.77,36.25l7.99 0c1.21,10.95 -3.52,6.01 8.19,10.48 8.54,3.25 25.01,2.53 32.47,4.88 13.41,4.23 13.59,10.07 29.86,4.57 20,-6.77 53.36,1.46 75.65,-3.58l17.41 0.97c8.14,0.92 4.65,0.02 9.75,0.19 3.76,0.12 3.86,0.61 10.69,1.17 0.94,11.3 3.94,15.43 -1.54,27.74 -5.46,12.27 -8.83,22.54 -17.63,33.1l-20.86 19.14c-2.1,1.62 0.02,0.49 -4.58,3.42l-24.86 9.81c-8.46,3.7 -16.57,2.81 -27.73,4.41 -31.46,4.52 -10.96,-5.42 -41.78,0.45 -3.54,0.68 -4.11,0.6 -7.71,0.6 -16.65,-5.51 10.93,-3.89 -13.04,-5.46 -7.04,-0.47 -16.92,0.12 -24.31,0.12 -4.19,-10.41 1.78,-1.99 -9.87,-6.11l-31 -14.51zm4509.92 -41.98c-10.55,-3.49 -15.49,-10.81 -24.2,-16.54 -8.72,-5.74 -1.91,-5.04 -12.15,1.81 -1.46,-13.37 -0.27,-4.43 -10.9,-13.11 -0.84,-0.69 -4.95,-5.33 -5.1,-5.57 -2.71,-4.59 -1.24,5.14 -2.67,-7.99 -10.66,-1.17 -20.02,-12.43 -27.89,-20.13l-17.29 -12.05c-0.57,-0.25 -1.31,-0.52 -1.87,-0.79l-11.86 -9.49c-3.48,-3.54 -4.99,-5.96 -7.65,-8.34 -4.16,-3.73 -2.68,-4.32 -10.79,-5.21 -1.28,-11.65 -9.41,-13.16 -18.56,-21.45l-20.98 -17.53c-0.06,-0.47 -0.28,-0.7 -0.46,-1.03 -20.23,0 -22.56,-8.01 -29.34,-8.01 -6.13,0 -10.24,5 -10.63,5.16l-131.98 -1.9c-0.08,-0.15 -0.49,-0.82 -0.57,-1 -0.06,-0.16 -0.38,-0.82 -0.43,-0.98 -3.64,-12.23 8.78,-35.71 16.62,-45.57l7.79 -8.22c0.41,-0.36 1.02,-0.89 1.45,-1.22 8.29,-6.61 17.57,-5.36 25.41,-11.99l4.89 -5.93c2.14,-2.31 0.3,-2.63 5.31,-3.91 7.37,-1.89 -5.44,0.89 7.45,0.89l14.93 -1.37c37.63,-3.73 39.81,-7.52 78.26,1.51l19.68 7.08c23.09,14.28 2.63,2.83 19.33,8.03 4.75,1.49 6.3,4.8 9.74,8.08 6.69,6.36 11.98,4.34 35.82,22.93 0.44,0.34 1.11,0.77 1.56,1.11l13.97 15.36c4.28,3.85 13.73,4.6 19.67,6.69l3.07 15.91c11.46,1.25 9.84,4.95 15.33,11.34 6.61,7.68 7.64,2.83 8.68,15.33 12.45,1.36 5.79,1.18 12.51,8.9l21.13 22.24c0.47,0.31 1.84,1.15 2.25,1.5 0.2,0.18 0.78,0.69 0.96,0.88l51 30.38c0.3,0.15 1.04,0.46 1.33,0.54 0.26,0.08 1.03,0.15 1.29,0.19 9.53,1.39 -3.36,-0.69 3.79,-0.51 9.62,0.23 7.97,6.86 20.41,7.89 3.4,-8.43 2.85,-3.8 11.97,-6.9 0.62,-0.22 1.35,-0.48 1.96,-0.67l11.16 -1.72c26.27,1.7 18.09,-6.43 31.03,-6.34 20.36,0.13 -6.03,6.19 19.52,3.65 5.87,-0.58 18.99,-2.53 24.1,-2.86 9.36,-0.6 11.17,2.06 20.27,4.17 0,24.42 -7.91,40.58 -26.59,53.42l-8.3 5.04c-0.51,0.29 -1.17,0.69 -1.67,0.99 -0.53,0.29 -1.18,0.69 -1.7,0.98 -26.41,14.31 -100.52,15.71 -112.45,7.46 -14.19,-9.81 -7.18,-1.53 -19.61,-6.89l-22.19 -12.21c-3.45,-1.7 -3.53,-1.28 -5.83,-2.04zm-1297.88 -142.75c-4.25,6.34 -3.23,2.78 -5.34,10.68 -6.58,-0.15 -5.93,-1.07 -8.75,-1.66l-13.78 -1.18c-18.4,2.14 -11.79,-4.99 -14.8,2.84 -9.58,0 -20.33,0.49 -29.73,0.16 -28.13,-0.96 1.67,-2.46 -16.04,-4.69 -1.76,-0.22 -7.07,0.26 -9.75,0.51l-6.9 1.02c-31.9,8.43 -20.48,-1.66 -46.89,-3.74 -6.18,-0.49 -11.43,-1.49 -18.23,1.68 -7.12,3.31 0.18,0.53 -5.12,2.96 -11.22,5.18 -6.79,-0.97 -16.42,7.71 -0.4,0.36 -0.84,1.05 -1.25,1.41 -0.56,0.53 -1.98,2.28 -2.6,2.74 -6.96,5.21 4.69,2.36 -9.77,3.56 -1.5,13.8 3.11,4.86 -5.33,8.01l-11.96 -6.71c-22.04,-16.55 -13.71,-10.29 -17.94,-23.37l-4.71 -8.34c-0.15,-0.23 -0.59,-0.86 -0.77,-1.08l-7.38 -8.21c-4.37,-4.03 -5.09,-4.06 -9.67,-9.2 -6.58,-7.37 -3.77,-0.47 -6.26,-9.76 11.39,-17.01 37.1,-27.38 51.28,-36.92 0.41,-0.27 1.04,-0.81 1.45,-1.07 0.39,-0.23 1.07,-0.7 1.45,-0.91l14.14 -4.63c0.49,-0.25 1.1,-0.77 1.61,-1.02 13.81,-6.97 76.38,-3.97 82.43,-1.12 14.85,6.99 19.29,8.29 30.72,17.29 0.04,0.04 33.26,15.09 41.89,22.11 16.77,13.68 16.07,18.56 28.41,19.59 1.47,13.5 -2.07,3.61 3.79,9.54 5.71,5.8 -3.58,2.35 9.55,3.79 0.94,11 0.21,4.74 2.66,8zm-118.95 196.07c-10.04,-0.3 -1.89,0.92 -8.53,-1.86l-27.3 -10.29c-2.15,-0.55 -5.02,-1.29 -6.52,-1.68l-40.53 -12.14c-0.44,-0.17 -1.21,-0.39 -1.64,-0.53l-39.04 -20.49c-14.24,-12.19 -4.59,-1.73 -21.23,-8.31 -7.13,-2.81 1.67,-3.37 -10.97,-4.76 -0.61,-5.54 -0.57,-3.29 -1.87,-6.14 -3.26,-7.18 -9.54,-11.57 -15.22,-16.78 -7.09,-6.51 -3.52,-7.85 -14.92,-9.08 -0.92,-8.46 -6.62,-13.89 -12.06,-19.95 -1.14,-1.27 -3.45,-3.57 -3.98,-4.06 -11.19,-10.27 -9.87,-13.49 -15.5,-19.11 -2.55,-2.54 -15.01,-15.55 -16.47,-28.9 -29.89,-2.48 -14.96,-12.52 -41.79,-19.56 -6.63,-1.74 -12.73,-5.25 -22.82,-5.74l-87.61 1.11c-25.55,1.12 -10.07,16.55 -42.48,-5.14 5.7,-7.78 1.71,-3.26 10.67,-8.01 0,-3.69 -0.36,-9.67 0.31,-13.1 2.36,-12.23 -0.96,1.42 4.11,-9.17 8.19,-17.06 -3.55,-6.62 16.76,-25.89l6.76 -6.58c0.54,-0.56 2.08,-2.16 2.64,-2.71l26.13 -13.88c5.98,-3.15 -0.48,-2.13 10.07,-3.26 33.41,-3.56 15.47,-7.39 31.73,-7.99 7.4,-0.28 11.93,2.56 24.18,2.56 9.06,0 2.55,-3.77 13.98,-0.75l13.64 7.79c1.15,0.66 2.23,1.31 3.54,1.81 7.76,3.04 -0.62,0.02 6.39,1.61 15.54,3.51 14.31,9.33 28.56,14.11 5.27,1.76 1.9,0.13 5.79,2.21l17.97 16.7c12.25,13.94 16.35,14.27 31.58,21.76 9.94,4.91 13.42,13.31 22.69,19.99 0.46,0.33 1.13,0.75 1.59,1.07 9.12,6.41 13.28,11.03 14.29,23.06l7.99 0c1.07,9.74 0.97,4.86 2.82,7.89l11.39 13.03c0.16,0.25 0.51,0.92 0.67,1.18l26.72 34.96c8.14,9.29 9.01,11.93 25.07,12.29 0.6,7.2 1.26,7.25 2.67,13.33 17.74,0 23.55,5.3 41.14,6.6l14.08 2.36c28.1,7.68 23.51,-10.24 77.42,-5.54 12.26,1.07 5.09,-0.75 16.71,-0.75 56.71,0 60.89,-6.59 41.48,20.12 -4.81,6.63 -2.63,-4.68 -4.14,9.22l-8 0c-1.47,13.49 2.07,3.6 -3.79,9.54 -5.72,5.81 3.58,2.35 -9.54,3.79 -1.57,14.36 1.41,2.42 -4.46,8.88l-20.4 16.95 -27.07 7.26c-0.44,0.09 -1.26,0.13 -1.69,0.24 -4.68,1.13 -2.48,0.83 -6.4,2.53 -8.21,3.57 -8.61,0.97 -17.96,3.39 -7.38,1.91 -7.54,3.49 -18.49,4.36 -1.86,0.15 -4.92,0.56 -9.17,0.43zm1457.82 -305.42c4.57,-11.32 0.01,-3.64 11.12,-4.47 10.78,-0.81 4.37,-3.53 12.89,-3.53 12.12,0 26.62,0.09 37.4,5.14 20.36,9.53 11.1,2.63 33.53,11.93 0.6,0.26 1.31,0.52 1.92,0.76 0.6,0.25 1.33,0.48 1.93,0.72 10.63,4.36 12.52,7.02 21.48,15.86 12,11.86 18.99,29.48 24.28,45.07l3.66 9.68c1.44,4.94 3.71,20.58 3.83,25.51 -14.16,1.17 -3.33,3.65 -18.49,4.01 -7.08,0.17 -6.69,0.78 -18.66,1.29 -9.04,0.39 -17.55,0.08 -26.31,-0.88 -19.46,-2.13 -3.25,-0.69 -19.22,3.58 -29.3,-19.62 -43.69,-12.31 -67.03,-11.74 -11.37,0.28 -7.77,-6.93 -24.71,5.34 -0.45,0.33 -1.02,0.86 -1.48,1.19 -6.14,4.33 -3.62,4.39 -13.46,5.21 -1.78,21.42 -6.49,5.68 -10.67,21.34l-5.34 0c-4.59,-12.71 -51.93,-52.62 -61.34,-66.68 12.06,-8.07 9.98,-15.57 29.33,-16 0.26,-11.36 -1.47,-6 3.34,-12.68l5.65 -5.02c0.46,-0.33 1.11,-0.77 1.6,-1.07l20.25 -9.09c6.39,-3.43 4.14,-2.02 10.88,-5.12l17.98 -11.36c4.11,-4.52 2.93,-2.99 4.33,-9.01l21.34 0zm-435.85 90.38c-0.25,-0.89 -0.66,-9.09 -0.34,-10.3 1.8,-6.79 11.56,-13.92 18.22,-17.98 13.63,-8.31 11.82,-6.09 31.24,-6.09l-12.13 19.88c-18.41,23.69 4.67,28.09 -27.86,30.79l-9.12 -16.3zm-2737.96 -74.38c0.54,-24.42 19.41,-14.31 21.34,-37.35l8 0 37.34 93.35c-24.37,25.69 -28.98,34.67 -50.68,34.67 -3.11,-11.65 -12.98,-14.44 -27.76,-30.91 -9.47,-10.56 -13.82,-13.09 -25.72,-16.58l-7.86 -8.52c5.59,-2.03 2.53,-0.88 6.64,-4.02 9.09,-6.94 12.62,-14.45 26.12,-24.56l12.58 -6.09zm-1509.57 34.67c2.18,-4.13 2.41,-4.65 5.2,-8.13l39.11 -38.24c2.73,-2.27 4.31,-2.93 6.37,-4.31 2,7.48 0.86,3.59 5.05,8.29 0.37,0.4 0.97,0.91 1.35,1.31 24.3,24.62 24.61,29.29 52.27,35.74 0,17 -8.64,23.37 -24.63,34.04 -0.66,0.43 -2.57,1.67 -3.24,2.1 -24.15,15.5 -26.55,2.51 -32.14,-2.79 -27.76,-26.34 -31.06,-4.56 -33.34,-25.35 -8.12,-0.19 -9.72,-1.22 -16,-2.67zm-706.78 58.67c-9.46,-0.79 -5.86,0.04 -16.72,-9.95l-2.86 -2.51c-0.41,-0.39 -1.01,-0.9 -1.41,-1.3 -10.93,-10.78 -9.09,-10.76 -9.12,-16.34 -0.18,-29.09 2.98,-38.16 19.59,-52.43 0.42,-0.36 0.99,-0.9 1.43,-1.24l13.5 -7.85c2.94,-1.35 4.11,-1.78 7.68,-2.98 34.22,-11.54 73.78,1.14 78.59,1.26l0 5.33c-8.49,3.08 -5.59,7.71 -18.67,8 -0.64,5.83 -0.65,3.39 -1.93,6.08l-9.6 14.48c-3.81,8.5 -3.97,17.43 -3.61,24.09 0.68,12.45 0.22,1.46 7.45,21.7l1.4 3.94c0.26,0.54 0.6,1.25 0.91,1.75l3.83 4.18c4.7,3.45 5.45,3.23 12.21,3.79l0 8c10.44,1.14 5.02,1.38 7.84,2.83l24.07 13.27c5.89,4 15.03,13.24 21.44,13.24 67.22,0 62.74,-10.76 55.24,25.89 -1.16,5.62 -1.9,15.42 -1.9,24.78l-35.7 1.27c-5.17,2.07 -1.54,-3.11 -4.3,4.07l-85.34 0c-1.7,6.34 -23.51,28.28 -12.57,55.01 8.73,21.37 9.38,23.77 20.57,25l0 10.67c-4.46,1.61 -4.45,2.14 -4.79,2.31 -25.38,12.27 -47.7,5.69 -75.23,5.69l0 -8c-13.54,-1.13 -9.25,-2.78 -15.2,-11.48l-9.64 -11.77c-0.34,-0.48 -0.81,-1.09 -1.11,-1.6 -0.32,-0.52 -0.74,-1.18 -1.02,-1.72 -7.77,-15.64 5.63,-20.48 5.63,-56.11 -32.71,0 -0.76,-2.48 -26.13,6.01 -30.14,10.09 -40.74,-7.48 -50.35,-17.54 -0.38,-0.4 -0.92,-0.98 -1.31,-1.36 -0.57,-0.54 -2.31,-1.97 -2.92,-2.47 -1.2,-1 -4.05,-2.94 -4.63,-3.51 -8.2,-8.15 -4.2,-28.32 -3.9,-39.56 0.26,-8.87 -3.09,3.36 0.62,-9.14l25.95 -27.1c17.14,-13.68 43.75,-4.28 63.31,0.73l15.21 5.87c0.43,0.17 1.13,0.51 1.58,0.63l11.93 -0.56 0 -13.33zm5254.15 -133.35c0,-10.28 -0.3,-8.46 7.99,-10.67 10.59,7.75 5.61,11.31 12.13,22.54l18.24 19.11c6.08,4.7 6.31,5.4 9.64,11.7 -2.65,4.02 -2.67,-6.1 -2.67,8 -13.5,1.48 -3.61,-2.07 -9.55,3.79 -5.81,5.71 -2.35,-3.58 -3.79,9.55 -11.86,1.29 -16.72,8.66 -25.43,14.57 -3.5,2.37 -3.62,2.54 -6.56,4.09 -9.23,-6.75 -1.64,-5.74 -15.23,-11.44 -8.05,-3.38 -9.77,-2.37 -17.83,-8.91 -13.23,-10.75 -1.28,-6.13 -15.35,-8.16 -13.56,-1.95 -4.59,-2.17 -15.61,-6.15l0 -7.99c11.39,-3.05 12.47,-9.27 29.34,-10.68l0 -7.99c13.55,-1.13 3.26,2.12 11.23,-4.78 3.9,-3.38 0.08,-0.47 3.78,-4.21l2.69 -2.64c9.96,-9.15 9.27,-8.87 16.98,-9.71zm-1493.57 -24c7.17,-0.75 7.26,-1.25 13.33,-2.66l8.58 10.09c5.89,7.91 4.41,-2.02 4.76,13.91 13.74,1.14 9.24,2.55 16.02,15.98 0.28,0.53 0.63,1.24 0.91,1.75 11.37,20.32 16.14,4.13 25.73,22.27 -9.31,9.83 -5.87,-1.01 -24.6,15.41l-44.75 35.27 -20.98 -16.36c-3.01,-4.5 -1.61,5.25 -3.02,-7.64 -21.82,-1.82 -24.64,-8.82 -32.12,-13.22l-18.56 -5.45c4.71,-17.64 9.46,-5.29 22.53,-14.8l33.27 -30.75c0.17,-0.15 3.89,-3.69 4.11,-3.9 18.47,-17.72 13.69,-6.81 14.77,-19.89zm-2195 173.36c4.81,-20.68 1.64,-7.22 -6.73,-23.17 -2.96,-5.64 -2.12,-11.74 -5.68,-17.53 -7.13,-11.63 -17.14,-6.89 -26.09,-16.81l-14.18 -23.16c-11.53,-17.77 -7.25,-19.52 -1.51,-37.41 2.6,-8.08 -0.25,-6.94 4.63,-14.16 6.58,-9.72 18.81,-13.81 22.89,-25.12 8.31,0.69 10.97,1.63 21.37,2.63l13.06 2.94c0.66,0.21 1.32,0.49 1.97,0.71 0.67,0.2 1.35,0.43 2.03,0.63 0.69,0.2 1.41,0.36 2.12,0.56l16.5 7.5c7.28,5.99 4.08,7.84 14.96,9.04l5.31 17.23c14.14,40.78 7.28,19.69 8.49,62.46 0.43,15.29 2.14,0.62 -3.56,13.1 -8.23,18.07 -0.84,18.27 0.42,29.9l8.01 0c2.48,-9.31 6.1,-9.04 8.97,-17.42l5.9 -15.52c3.95,-7.51 0.89,-4.71 2.8,-11.51 3.25,-11.64 5.66,-5.03 8.99,-14.23l29.34 0 23.15 22.3c4.35,6.64 6.04,10.11 5.41,18.45 -0.02,0.29 -0.09,1.11 -0.1,1.41l0.41 3.81c0.99,7.76 -3.9,8.95 -9.34,13.78 -0.55,0.49 -2.23,1.8 -2.69,2.29l-3.51 7.31 -29.42 1.42c-8.46,0.11 -21.24,-3.87 -21.24,9.25 0,18.88 25.39,14.53 35.12,13.67 14.19,-1.28 10.24,2.67 23.14,1.95 7.64,-0.43 12.16,-2.29 24.41,-2.29l96.01 0c30.3,0 63.69,8.68 69.34,-5.33l5.34 0c2.57,6.36 -0.04,3.7 6.82,6.5 16.51,6.75 20.84,-5.03 31.84,-4.99l51.15 -0.3c13.02,0.33 8.94,3.59 17.54,2.25 6.06,-0.95 -4.1,-3.31 12.22,-0.77 49.96,7.78 52.97,-4.41 71.6,6.11l41.85 30.39c13.61,17.27 10.82,14.08 -3.62,17.16l-13.9 1.79c-31.71,-5.06 -34.78,-1.33 -61.56,0.22 -0.26,0.02 -0.94,0.02 -1.2,0 -0.27,-0.02 -0.96,-0.18 -1.26,-0.23 -25.6,-3.9 -54.83,-3.44 -80.66,-3.34 -12.96,0.05 -12.58,3.87 -20.16,3.87l-31.42 -1.8c-6.91,0.41 -21.67,2.57 -30.99,-0.18 -0.57,-0.17 -1.28,-0.55 -1.8,-0.7l-8.89 -0.12c-8.94,1.98 -27.96,-2.15 -38.39,-1.59l-195.23 -3.61 0 16.01c4.22,0.09 17.36,1.86 21.08,2.92l18.04 11.31c9.8,3.98 20.76,1.73 22.22,15.11 14.26,1.56 2.58,-1.57 8.84,4.5 10.33,9.98 15.62,21.53 7.89,36.23l-2.9 5.12c-7.59,12.11 -15.29,10.13 -19.16,20.84 -10.24,-0.85 -5.84,-1.62 -15.69,-3.37 -14.96,-2.66 -12.34,3.19 -21.44,-4.54 -3.09,-2.62 -5.48,-5.33 -8.14,-8.16 -5.81,-6.18 -11.4,-9.85 -17.24,-17.44 -7.61,-9.89 -13.56,-18.94 -25.5,-9.17 0.84,10.22 0.41,6.58 5.81,12.86l15.52 35.14c0,5.99 -5.33,17.38 -5.33,50.68l-8.01 0 0 8.01c-14.94,0 -31.68,5.53 -43.79,-4.23 -7.05,-5.67 -20.22,-19.46 -22.54,-28.66 -0.08,-0.3 -0.3,-1.04 -0.36,-1.35l-0.57 -2.98c-0,-0.05 0.6,-10.3 0.62,-10.36 1.35,-7.45 5.38,-13.59 9.59,-17.48 10.94,-10.12 17.05,-17.33 17.05,-33.62 -23.97,0 -11.85,9.02 -22.2,16.34 -7.57,5.35 -18.7,-0.34 -20.48,21 -11.43,0.26 -6.44,2.16 -14.56,4.35 -11.03,2.97 -31.03,-3.66 -38.08,-12.27 -4.07,-4.99 -3.96,-10.39 -12.83,-19.95 -3.18,-3.43 -7.09,-6.96 -9.11,-9.57 -11.83,-15.2 -2.87,-23.98 -1.13,-30.28l2.84 -10.48c3.13,-6.56 8.94,-8.47 13.78,-12.89 21.62,-19.72 -12.08,-18.32 -28.92,-18.27 -44.12,0.15 -150.57,3.68 -185.16,-1.54 -20.77,-3.12 -42.13,-1.13 -62.88,-1.13l-29.01 -1.57c-3.37,0.08 -7.13,1.57 -13.66,1.57l-26.09 -1.8c-4.08,0.24 -10.24,1.76 -19.14,1.9 -15,0.25 -30.4,-0.09 -45.45,-0.1 -30.23,0 -59.51,4.14 -88.76,1.52 -30.52,-2.73 -60.68,6.83 -87.53,-9.26l-15.76 -8.25c4.8,-13.26 0.26,2.68 6.14,-9.86 6.9,-14.71 5.55,-9.61 16.93,-17.75l14.27 -7.07c3.14,7.76 -5.72,4.15 10.5,5.7 14.19,1.35 46.61,-3.73 58.39,-2.71 10.5,0.94 8.32,3.51 23.32,1.26l56.59 1.32c0.43,0.08 1.2,0.31 1.64,0.39 50.83,9.15 60.11,-6.22 77.08,-4.69 16.27,1.46 8.86,9.24 34.23,1.78 5.37,-1.58 -0.29,-0.56 5.24,-1.43 21.22,-3.3 30.68,3.4 34.39,3.72 2.69,-6.65 -2.46,-6.02 12.75,-5.21 19.31,1.02 50.44,-1.7 68.42,1.28 30.02,4.96 84.61,1.27 118.87,1.27 11.25,0 27.26,7.81 32,-5.33 3.58,0 10.06,-0.38 13.31,0.05 15.15,1.98 5.47,2.1 7.22,3.01 2.63,1.37 7.29,2.27 19.48,2.27 3.31,-12.39 4.2,-2.35 5.33,-16.01 -0.6,-0.22 -1.35,-0.79 -1.71,-0.95l-51.43 -39.08c-4.26,-4.91 -0.83,-3.34 -8.21,-5.31 4.02,-2.65 -6.1,-2.66 8.01,-2.66 -0.86,-10.43 1.61,-8.1 -8.01,-10.67 4.31,-5.88 14.53,-16.69 22.13,-18.37 0.23,-0.04 0.96,-0.04 1.19,-0.06 0.24,-0.02 0.99,0.11 1.24,0.11l11.44 -0.5c4.19,0.32 -1.97,-0.11 3.06,0.6 0.43,0.07 1.22,0.29 1.65,0.35 22.87,3.12 9.93,5.59 31.31,15.19l12 6.68c8.56,6.93 16.47,12.75 24.28,23.73l2.25 3.09c4.05,5.79 6.66,13.36 12.49,16.86 6.37,3.82 -0.51,2.1 10.33,3zm1456.23 -125.35c5.94,-14.74 46.09,-2.83 48,-2.66l0 7.99c15.64,0.35 18.32,3.03 18.67,18.67l8 0c0.41,17.91 0.95,5.89 3.94,12.17 6.11,12.82 1.4,-0.54 1.4,11.84 0,11.96 3.73,-1.3 -2.83,17.53 -7.71,22.21 -8.14,8.63 -13.8,19.16 -3.26,6.04 -1.35,0.38 -2.03,8.65 14.04,0 7.99,1.48 16.14,-2.51 0.54,-0.26 1.17,-0.7 1.68,-1 0.69,-0.39 2.49,-1.75 3.15,-2.19 0.47,-0.31 1.09,-0.79 1.56,-1.11 5.01,-3.37 9.98,-5.47 13.2,-10.8 0.3,-0.5 0.66,-1.2 0.93,-1.74 1.42,-2.98 3.02,-11.52 3.34,-15.33 8.26,-1.91 13.25,-1.16 16.01,-7.99l8 0c3.03,7.52 20.57,9.83 27.41,20.58 8.33,13.08 4.34,29.13 9.92,40.76 -4.81,1.73 -2.49,0.56 -5.27,2.74 -7.02,5.53 -7.87,11.94 -8.07,21.26 14.08,3.28 12.37,-1.8 27.48,1.89 4.54,1.1 -0.34,0.57 3.16,1.02l9.87 -2.22c14.2,-2.45 34.18,1.74 51.59,2.99l163.94 -1.01c6.53,0 10.29,1.49 13.67,1.56l26.34 -1.56c11.08,0 0.47,6.07 14.63,3.68 10.81,-1.82 -3.88,-4.49 14.68,-1.04 14.93,2.77 2.52,2.23 15.21,-0.62 11.35,-2.57 45.3,2.2 62.25,-1.94l3.31 -1.04c16.38,-3.36 72.13,-3.1 87.11,6.47 0.96,0.6 4.53,4.28 5.43,5.24l9.09 9.57c0.36,0.43 0.87,1.03 1.19,1.48l6 9.99c3.81,5.21 1.06,0.72 3.76,4.25 3.66,4.78 4.03,-2.55 4.03,9.3 0,9.51 -6.13,8.15 -14.68,7.06 -17.59,-2.23 -10.07,0.94 -22.66,0.94 -18.81,0 -10.4,-2.08 -30.69,0.96 -7.59,1.14 -21.19,-1.16 -33.43,-1.04l-60.61 0.71c-15.89,2.86 4.18,3.12 -12.54,3.02l-54.82 1.8c-20.63,0.98 -37.81,-2.79 -58.61,-2.79 -9.93,0 -8.39,1.41 -15.77,1.62 -3.28,0.1 -7.99,-0.34 -12.68,-0.3 -28.29,0.22 -127.94,-3.5 -144.05,0.26l-3.43 1.18c-0.56,0.19 -1.24,0.55 -1.83,0.73 -12.44,3.88 -19.67,-0.11 -30.23,-3.47 -13.82,-4.39 -1.63,2.64 -13.37,2.64l-40.01 0c-13.01,0 -23.85,-16.91 -50.67,-10.67 0.77,7.02 0.43,3.33 1.77,6.42 2.35,5.46 4.28,6.86 9.67,8.4 22.03,6.25 32.57,14.97 50.83,26.92l20.4 30.27 -1.57 16.33c-0.35,15.03 6.12,20.99 -8.81,31.95 -7.32,5.37 -28.82,7.54 -34.86,6.37 -10.47,-2.04 -11.52,-14.64 -24.46,-18.15 -8.6,-2.33 3.34,3.51 -6.35,-1.23 -0.25,-0.13 -3.47,-2.56 -3.88,-3.17l-2.73 -8.1c-14.01,-1.54 -2.62,0.35 -10.89,-5.12 -9.66,-6.39 0,-4.46 -13.12,-5.54 -1.51,67.96 30.34,37.98 10.62,101.31 -5.11,16.43 -16.33,9.42 -30.09,9.24 -20.97,-0.25 -23.38,-7.56 -35.72,-20.7 -6.95,-7.41 -1.16,5.2 -6.15,-7.18 -2.56,-5.84 -0.02,-17.48 2.1,-22.03 8.61,-18.45 0.67,-12.58 19.92,-38.67 17.74,-24.04 -0.45,-26.24 -10.15,-18.39l-10.97 15.99c-0.3,0.52 -0.68,1.18 -0.97,1.71 -0.28,0.53 -0.64,1.2 -0.92,1.74 -0.27,0.54 -0.64,1.23 -0.9,1.78 -0.26,0.56 -0.58,1.26 -0.84,1.83l-5.45 10.55c-0.03,0.04 -7.93,6.11 -9.36,6.64l-22.48 9.52 -15.86 -8.16c-4.88,-1.76 -11.63,-3.3 -13.98,-11.22l-4.19 -15.82c-1.94,-4.52 -1.89,-2.85 -2.24,-8.31l1.64 -26.24c0.15,-0.49 0.54,-1.2 0.72,-1.68l4.71 -14.56c3.99,-8.64 19.05,-23.34 26.53,-26.03l0 -5.34c-14.66,-5.31 -4.78,-7.99 -29.34,-7.99 -26.27,0 -58.95,-1.74 -84.81,2.13 -0.31,0.05 -1,0.21 -1.27,0.22l-2.49 -0.24c-18.17,-2.95 -28.5,0.94 -45.3,-1.6 -16.24,-2.46 -25.99,9.98 -52.3,4.29 -15.1,-3.27 4.65,-1.97 -14.05,-4.62 -5.56,-0.79 -11.45,-0.2 -17.8,-1 -18.81,-2.34 -40.1,-0.19 -61.41,-0.97 -17.98,-0.66 -5.89,-0.28 -12.67,2.96 -7.59,3.62 -18.32,2.35 -28.35,2.43l-15.08 -0.11c-2.04,-0.01 -7.41,-0.68 -11.19,-0.65 -11.99,0.08 -10.61,1.13 -20.89,0.83l-28.29 -0.13c-0.57,-0.03 -1.36,-0.02 -1.93,-0.04 -0.55,-0.04 -1.36,-0.06 -1.89,-0.1 -19.24,-1.35 -37.14,1.92 -56.37,1.92 -10,0 -1.18,-2.08 -9.04,-3.58l-37.05 -0.25c-4.39,-0.39 -4.75,-0.39 -9.1,-0.45l-52.5 0.13c-9.45,-0.6 -22.07,1.9 -33.78,-0.64 -0.39,-0.08 -1.14,-0.25 -1.51,-0.36l-2.85 -1.3c-6.26,-3.31 -6.1,-5.99 -14.18,-6.87 6.78,-10.15 6.13,-17.31 18.67,-18.67l0 -8c9.97,-0.83 15.11,-6.11 30.73,-11.94 6.72,-2.5 8.03,-6.73 17.28,-6.73l98.68 0c15.36,0 28.43,3.54 39.53,2.37 7.4,-0.78 8.87,-2.89 18.69,-2.04 39.72,3.41 59.82,-5.28 70.08,-3.72l10.39 8.73c12.46,-3.32 3.66,-4.33 14.1,-7.24l60.56 -3.58c17.24,-0.09 21.98,2.4 38.53,2.08l47.35 2.21c17.27,1.52 47.14,2.14 63.8,-0.96 16.16,-3 6.69,3.28 10.37,-5.84l8 0c4.64,12.83 0.69,-2.16 5.34,10.67l7.99 0c2.84,-7.4 4.4,-2.27 10.67,0 4.64,-12.82 0.69,2.16 5.34,-10.67l13.33 0 2.99 10.57c5.74,-2.25 3.31,-3.32 8.95,-2.91 0.32,0.02 1.05,0.27 1.37,0.32 17.81,2.6 -10.17,0.12 4.79,1.07 27.05,1.71 17.57,-16.26 1.64,-23.44l-30.41 -20.28c3.16,-8.44 -5.78,-3.82 8.01,-5.33 -2.15,-8.04 0.02,-5.86 -8.01,-8 3.27,-2.46 -3,-1.72 8.01,-2.66 -0.74,-8.81 -8.05,-34.3 13.33,-40.01 3.26,-10.59 -3.57,4.61 16.86,-7.01 7.63,-4.33 -1.31,-3.49 10.56,-2.05 11.01,1.33 19.98,10.88 27.11,13.63 10.68,4.1 8.28,18.22 22.81,19.43 0.21,9.42 1.39,11.65 5.82,15.52 4.43,3.87 8.97,2.73 10.19,13.82l8 0c1.05,9.64 3.09,10.67 13.32,10.67 9.69,0 8.57,-9.63 10.68,-18.68 -13.78,-1.15 -9.15,-2.87 -15.2,-11.48 -14.64,-20.83 -8.19,-13.33 -16.62,-33.82l-2.22 -13.88c1.59,-8.12 -0.69,-5.35 7.37,-7.5l0 -8c-5.01,-1.92 -3.71,-0.82 -2.18,-8.73 2.13,-11.01 -5.65,-8.77 4.86,-9.94zm1544.23 -26.67c16.44,0 29.72,-3.99 42.27,5.74 12.48,9.7 25.34,48.49 23.88,62.84 -1.12,11 -6.58,19.38 -7.47,30.1 5.39,1.96 5.55,8.01 10.68,8.01 10.04,0 5.03,-1.76 16,-2.67 0.85,-10.28 2.66,-8.59 2.66,-21.34l8.91 -4.61c9.08,-4.5 24.45,-2.68 32.74,2.97 4.4,3 3.59,3.01 6.77,6.56 5.2,5.84 6.04,8.59 12.92,11.07 0,22.28 3.12,37.68 -16.86,41.4 -4.02,0.75 -1.05,-0.58 -4.78,1.25 -9.25,4.54 -0.83,6.79 -15.71,8.03l-3.07 15.92c30.88,7.16 20.06,-5.25 40.41,-5.25 9.06,0 4.86,1.13 12.69,1.24l37.99 -1.24c10.24,0 4.18,1.41 14.53,1.23l105.64 -0.87c27.33,-3.66 4.69,-8.15 41.4,-1.88 9.15,1.57 17.33,-1.14 27.8,-1.14 6.54,0 10.3,1.49 13.67,1.57l23.66 -1.57c18.83,0 30.02,7.97 47.96,5.15l120.08 -5.15c7.97,0 5.04,2.28 9.47,6.52 9.02,8.66 11.12,5.27 20.96,11.04 5.1,3.01 6.47,7.85 6.9,11.77l10.14 3.58c15.45,8.94 6.15,7.39 1.9,13.06 -16.65,22.25 -29.83,19.05 -57.94,18.89l-50.12 -2.27c-2.89,0.16 -4.57,-0.12 -9.57,-0.08 -7.02,0.04 -9.96,0.16 -16.32,0.02l-88.04 -0.2c-15.86,-0.02 -10.94,6.28 -38.11,4.49 -5.49,-0.36 -4.5,0.05 -9.64,-1.34l-259.34 -0.81c-10.48,0.17 -18.41,3 -21.71,15.34 12.11,2.83 44.5,16.76 49.91,27.46l6.23 17.53c5.71,15.1 6.6,38.65 -15.17,41.06 -32.78,3.64 -12.15,1.38 -41.85,-13.18 -9.17,-4.5 -12.05,-11.87 -19.33,-18.02l-8.21 -5.12c-8.35,-4.73 -9.1,-4.41 -19.61,-4.41 0,15.72 4.1,15.05 16,21.35 0,26.74 10.95,15.68 9.47,43.58 -0.44,8.31 -2.34,8.7 -6.61,15.09 -0.32,0.49 -0.75,1.16 -1.08,1.65 -0.33,0.48 -0.75,1.15 -1.09,1.63 -2.73,4.01 -0.26,1.09 -3.3,4.76l-3.96 4.07c-19.59,14.21 -55.22,-3.56 -60.3,-25.39 -0.19,-0.79 -0.25,-1.52 -0.43,-2.32 -2.43,-10.71 -6.28,-6.73 -1.13,-17.93 4.09,-8.87 1.44,1.9 5.11,-11.07 1.15,-4.06 1.81,-7.22 1.96,-14.07 -15.6,-1.3 -18.2,-0.68 -29.11,10.89 -7.09,7.5 -4.05,-3.32 -5.56,10.45 -18.11,0 -42.46,3.21 -56.04,-2.42 -0.58,-0.24 -1.26,-0.6 -1.88,-0.83 -0.66,-0.25 -1.34,-0.5 -2.03,-0.72 -11.59,-3.82 -12.37,2.67 -13.75,-12.67l-4.93 -14.85c-0.06,-0.73 1.43,-8.25 2.19,-10.03l6.26 -15.73c3.21,-20.89 17.99,-16.03 32.53,-23.07 9.66,-4.67 -4.67,-0.33 8.31,-5.03 -0.99,-11.93 -7.29,-15.64 -16.62,-18.19 -4.9,-1.35 -10.72,-1.92 -13,-2.1 -2.17,-0.18 -5.24,-0.2 -5.59,-0.23l-63.63 -0.24c-0.35,-0.01 -1.24,-0.06 -1.61,-0.08l-5.98 -1.14c-22.85,-3.24 -100.1,1.5 -125.04,2.79l-51.2 -2.18c-8.66,0.01 -18.13,-0.34 -26.68,0.28l-219.15 2.03c-12.42,0.75 -7.95,-2.28 -20.94,-2.28 -10.62,0 -14.22,3.99 -25.45,1.67 -14.82,-3.08 -21.7,-5.79 -34.38,-3.54 -13.42,2.37 -24.06,-6.14 -25.51,-19.47 -9.56,-1.04 -1.69,0 -6.19,-1.8 -4.92,-1.98 2.62,0.02 -7.15,-3.53l0 -13.34c8.72,2.04 7.38,4.31 14.03,-1.76l7.31 -14.24c43.01,-3.58 89.27,2.67 133.35,2.67l141.64 -0.89c4.72,0.26 19.42,1.16 29.14,1.01l151.94 -2.79c6.53,0 10.29,-1.5 13.66,-1.58 18.3,-0.43 35.03,2.69 66.36,0.26 0.37,-0.03 8.01,-0.44 9.1,-0.43 16.61,0.22 -1.07,3.45 28.16,3.08l32.08 1.33c0,-11.83 2.75,-20.1 -8.15,-24.15 -1.72,-0.64 -8.08,-1.96 -10.52,-2.52 -0.19,-0.39 -0.21,-1.54 -0.25,-1.25 -0.05,0.3 -0.24,-1.09 -0.3,-1.27 0,0 0.64,-0.1 -1.6,-3.94 -0.68,-1.14 -5.76,-7.41 -6.57,-8.72l-9.94 -19.51 13.85 -15.51c17.26,0.43 34.9,4.49 48.19,14.8l18.3 11.04c14.29,6.09 9.34,8.71 16.7,20.64l6.98 11.7 18.66 0c1.84,-6.94 -0.99,-2.99 5.34,-5.34 -3.06,-13.09 -3.18,-10.63 -13.34,-16.01 0,-14.03 -0.36,-17.59 -7.44,-27.23 -0.46,-0.63 -1.84,-2.39 -2.27,-3.06 -2.75,-4.27 -0.76,-0.3 -2.85,-5.15l-4.73 -22.05c-6.47,-21.26 -0.04,-10.58 -0.02,-27.01l-0.78 -5.57c-0.29,-5.88 -1.42,-14.15 5.64,-20.86l12.01 -9.52c4.18,-3.01 0.97,-4.9 8.44,-4.9z"></path> <path class="fil0" d="M1720.73 283.53c0,-0.36 -2.62,-5.28 -2.67,-5.33 11.56,0 13.12,-1.28 21.34,2.67 0,12.35 -1.3,10.66 -21.34,10.66 3.49,-7.04 2.67,2.2 2.67,-8.01zm-21.34 10.66c0,23.78 34.74,25.45 50.06,15.39 15.91,-10.44 18.17,-16.24 13.61,-28.05 -0.2,-0.49 -0.59,-1.22 -0.78,-1.69l-2.47 -5.67c-4.13,-5.49 5.76,-2.59 -7.08,-3.99l0 -10.66 -16.78 -1.16c-10.83,-0.79 -20.96,-2.46 -28.66,9.04l-5.31 16.05c-1.84,6.5 -2.59,-1.58 -2.59,10.74z"></path> <path class="fil0" d="M3190.29 278.2c-0.38,16.65 -2.57,13.33 -18.68,13.33 -2.19,-10.37 -2.19,-2.97 0,-13.33l18.68 0zm-24 -24l-1.14 2.09c-0.07,0.15 -0.5,0.9 -0.58,1.09 -0.09,0.2 -0.44,0.94 -0.53,1.16l-0.91 2.54c-5.94,16.77 -10.18,6.63 -10.18,22.45 0,10.25 1.74,16.93 7.72,21.63 12.51,9.84 16.7,-1.82 21.62,10.38l8.01 0c5.06,-12.55 19.94,-11.45 20.9,-33.12 0.6,-13.88 0.94,-15.45 -9.08,-24.02 -15.64,-13.37 -12.08,-4.78 -35.82,-4.2z"></path> <path class="fil0" d="M4726.52 264.87c6.83,-2.65 14.15,-2.67 24,-2.67 -2.7,5.63 -1.96,2.41 -2.67,10.67l-21.34 -8zm-21.34 2.66l5 6.87c3.4,5.62 1.16,7.18 13.47,14.69 14.41,8.78 18.24,4.2 21.67,2.85 13.99,-5.61 13.37,-8.65 15.26,-14.78l0.83 -2.98c4.08,-10.66 6.68,-5.81 3.8,-15.67 -3.77,-12.92 1.4,-2.03 -7.07,-9.36 -0.86,-0.75 -8.33,-5.89 -9.06,-6.19 -11.58,-4.75 -19.99,1.6 -27.65,8.81l-16.26 15.76z"></path> </g> <g> <path class="fil0" d="M6876.46 448.07c-14.71,-9.85 -8.9,-6.21 -15.86,-14.93 -0.19,-0.24 -0.66,-0.86 -0.88,-1.11 -16.14,-18.54 -57.58,-15.53 -6.89,-50.34l6.21 -4.56c7.3,-5.57 2.58,-2.76 6.76,-4.15 0.61,-0.2 2.5,-0.38 3.13,-0.57 4.31,-1.33 1.78,0.36 4.75,-1.77 0.58,-0.41 2.15,-1.99 2.61,-2.55 2.54,-3.08 1.02,-0.31 2.85,-5.36l8 0c2.56,7.06 2.92,7.61 10.14,9.74 0.39,0.12 1.22,0.16 1.61,0.26 0.39,0.1 1.19,0.16 1.57,0.26l6 2.39c9.49,5.2 18.73,10.03 13.66,19.92 -2.6,5.07 -3.28,3.47 -8.72,7.65l-18.04 24.67c-4.56,9.22 -3.32,11.37 -16.89,20.45zm1480.23 -112.01c17.53,-0.42 -1.73,-8.8 20.68,-5.06l35.21 13.19c0.5,0.29 1.13,0.75 1.61,1.05 7.43,4.62 10.14,7.23 19.84,9.49l0 8c-10.49,0.88 -12.76,4.07 -19.79,12.22l-20.27 19.74c-6.83,7.13 -0.54,6.99 -13.29,8.05 -0.96,11.53 -5.31,14.42 -13.33,18.67 -0.23,-0.63 -0.75,-1.41 -0.91,-1.78 -4.7,-10.85 -1.19,-9.28 -5.89,-13.15 -10.6,-8.72 -4.42,-5.01 -10.72,-13 -10.51,-13.32 -8.14,-1.04 -18.64,-7.89 -8.83,-5.77 -2.47,-7.82 -14.51,-12.18 2.39,-8.94 1.83,-6.53 9.15,-12.32 4.93,-3.9 -0.44,-0.56 6.17,-4.4 13.02,-7.58 7.71,3.88 18.63,-7.84 0.53,-0.56 1.96,-2.39 2.38,-3.06l3.68 -9.73zm-1616.25 -16c16.08,0 52.05,-8.36 58.67,-26.67 2.09,1.4 8.2,4.68 10.03,5.98l20.95 24.39c5.77,7.03 8.4,8.21 15.46,13.93 19.3,15.65 9.64,14.22 9.57,14.38 -3.66,8.38 3.83,1.7 -14.36,9.64 -14.89,6.51 -6.26,3.19 -16.37,13.04l-10.93 7.07c-11.9,4.43 3.27,-5.25 -6.41,2.19 -5.2,3.99 7.09,5.4 -18.6,5.4 -5.9,14.61 -24,0.41 -34.91,5.53 -13.93,6.53 -2.14,3.12 -26.43,5.14 -1.49,-13.6 0.06,-4.63 -11.26,-5.76 -2.66,-0.26 -11.91,-1.36 -19.39,-3.47 -2.67,-0.76 -8.74,-2.86 -10.09,-3.38l-9.15 -4.37c-18.57,-9.82 -5.96,3.79 -23.73,-10.7 -0.37,-0.3 -4.65,-3.45 -4.71,-3.49 -1.09,-0.62 -2.23,-1.14 -3.36,-1.55 -13.05,-4.76 -0.43,10.2 -22.55,-15.07l-2.51 -2.83c-0.53,-0.57 -2.09,-2.15 -2.63,-2.71 -12.72,-13.25 -10.63,-11.1 -10.63,-32.04 0,-16.17 28.02,-7.84 38.31,-10.01 5.55,-1.17 -2.57,-3.41 12.54,-1.03 37.71,5.95 28.61,-5.97 47.59,5.91 0.49,0.31 1.12,0.76 1.61,1.07 0.54,0.34 4.95,3.06 4.96,3.06 6.76,3.53 19.27,6.32 28.35,6.32zm429.4 24c6.34,-9.48 5.13,-13.64 10,-22.01l14.01 -18c4.69,1.09 15.84,2.36 20.16,3.84 15.81,5.41 26.54,28.42 -5.76,47.95 -14.12,8.54 -20.18,6.12 -27.28,-1.39 -6.32,-6.69 -4.26,-7.92 -11.12,-10.4zm-597.72 -38.52c6.54,-0.02 2.4,-5.14 8.63,1.13 4.53,4.56 2.33,26.13 6.56,35.83 3.02,6.92 -0.13,4.25 6.44,6.9l0 13.33c-12.54,4.54 -2.64,10.67 -34.67,8.01 -1.31,-12.04 2.58,-4.61 -6.45,-9.55 -3.62,-1.97 -8.92,-1.13 -13.2,-8.14l-4.87 -11.13c-0.29,-0.5 -0.78,-1.11 -1.09,-1.59l-4.37 -6.34c-13.98,-29.83 10.08,-27.79 14.96,-29.02 15.4,-3.86 8.7,0.63 28.06,0.56zm1688.55 3.84c9.05,0 2.33,-1.87 10.91,-5.12 9.65,-3.66 2.19,-0.27 8.55,-1.67 5.57,-1.23 17.84,-13.31 25.51,-20.25 8.96,-8.1 6.68,-9.96 21.71,-10.3l0 8c18.8,1.57 12.34,17.85 29.34,24 -1.93,23.25 -6.81,23.38 -15.01,27.66 -0.54,0.28 -1.25,0.6 -1.79,0.87 -8.64,4.34 -20.12,8.42 -24.08,15.92l-30.33 14.94c-0.64,0.24 -1.32,0.51 -1.98,0.72 -0.69,0.23 -1.4,0.39 -2.1,0.58 -18.49,5.23 -14.31,6.13 -39.37,6.01l-42.8 -2.59c-20.88,-2.34 -9,-8.27 -20.64,-9.13l-25.54 -14.04c-13.62,-10.84 -2.92,-7.62 -15.06,-8.94 -0.24,-10.93 -2.67,-12.48 -7.44,-19.41 -0.42,-0.62 -1.74,-2.23 -2.08,-2.83 -0.21,-0.36 -0.65,-1.01 -0.81,-1.39l-0.34 -11.04c13.11,0 30.86,-0.02 38.93,-1.05l8.32 -1.24c0.26,0.01 0.99,0.11 1.26,0.13 0.29,0.02 1.05,0.19 1.36,0.23 25.83,2.79 33.95,7.77 48.87,7.41 6.99,-0.17 16.1,-1.07 18.08,-0.83 12.3,1.46 -2,3.36 16.52,3.36zm-197.36 -8c10.07,0 4.47,-1.55 12.56,-1.18 11.01,0.5 23.69,4.15 35.45,-1.48 -1.63,19.59 -5.75,-1.81 0,37.34 -24.69,0 -21.21,3.04 -30.51,-1.4 -6.28,-2.99 5.73,-3.53 -12.17,-3.93 -0.28,-12.68 -0.98,-14.65 -13.33,-16l0 -13.34 8 0zm594.76 18.67c0,-13.99 -0.25,-24.51 6.04,-28.61 10.74,-6.99 12.17,5.89 25.97,-0.73 -1.22,14.73 -13.65,33.52 -17.63,35.71 -4.86,2.68 -8.14,1.63 -14.38,1.63l0 -8zm234.7 -98.68c7.17,-0.75 7.26,-1.25 13.34,-2.67 0,7.84 0.33,16.38 -0.19,24.14 -0.86,12.91 -3.43,6.48 2.85,15.87 -9.89,2.64 -3.45,2.69 -13.33,5.33l-2.67 -42.67zm-66.81 23.92c-1.09,16.32 -0.87,12.62 -10.53,13.42l0 -21.34c0,-12.55 -1.58,1.93 -0.91,-9.24 0.14,-2.41 0.83,-5.77 0.91,-9.43l5.34 0c2.9,12.46 6.38,8.73 5.19,26.59zm-373.25 -26.59c22.43,0 36.79,2.59 55.94,2.78 4.25,0.04 12.31,0.31 16.2,-0.05 4.51,-0.41 3.1,-0.25 6.89,-1.26 0.66,-0.17 1.33,-0.51 1.94,-0.69 0.58,-0.18 1.26,-0.54 1.82,-0.71 9.27,-2.91 6.69,-1.64 20.06,-1.62 28.81,0.04 41.99,4.57 75.45,0.98l149.75 3.24c11.89,0 23.78,-10.1 21.96,16.38 -0.75,10.84 0.61,13.54 -3.45,21.03 -2.56,4.74 -3.27,3.87 -5.36,6.5l-2.49 4.09c-27.47,-13.18 -46.88,-1.64 -59,-1.49l-175.71 -1.18c-18.7,0 -43,-3.97 -59.07,2.3 -9.04,3.53 -0.71,3 -10.29,0.67l-3.98 -1.28c-14.28,-4.35 -9.15,-1.65 -20.29,-12.06 -11.68,-10.91 -7.87,-12.48 -18.38,-13.63 0.36,-16.34 5.19,-16.23 8,-24zm386.72 45.34c3.34,-6.96 3.27,-13.51 2.94,-24.13 -0.41,-13.12 -0.46,-10.86 -5.6,-18.54 13.3,0 18.47,-2.67 34.67,-2.67 1.12,13.48 8,18.66 8,24 0,27.75 -1.21,21.34 -40.01,21.34zm-2312.36 -90.68c26.79,-2.23 33.17,-16.45 48.64,10.43 6.92,12.02 -0.2,11.97 -3.97,15.58 -6.85,6.54 -12.47,8.67 -23.33,8.67 -32.16,0 -23.14,-13.03 -21.34,-34.67zm651.63 29c-8.29,1.58 -6.13,4.77 -8.86,-2.33l-5.34 0c0.23,-0.64 0.87,-1.37 1.06,-1.74l-6.39 -19.6c3.23,-4.41 2,-2.96 6.18,-7.16 8,-8.03 10.32,-6.18 25.83,-6.18 3.53,13.22 4.99,5.94 12.17,14.49 4.71,5.6 3.83,0.37 3.83,20.18l-28.48 2.33zm1476.7 -45c13.59,-0.33 5.57,1.19 8,-5.33l16 0c2.49,6.17 4.22,4.36 10.63,10.71 3.17,3.14 5.47,6.79 8.04,10.63l-4.22 6.45c-3.25,5.77 -2.67,-0.62 -3.79,9.55 -14.41,1.2 -14.16,3.45 -16,8 -13.25,-3.54 -2.98,-5.34 -24.4,-6.54l5.74 -1.46 0 -32.01zm-214.35 180.09c-10.54,-3.49 -15.49,-10.82 -24.2,-16.55 -8.72,-5.74 -1.91,-5.04 -12.15,1.82 -1.46,-13.37 -0.27,-4.44 -10.89,-13.11 -0.84,-0.69 -4.95,-5.33 -5.1,-5.57 -2.71,-4.59 -1.24,5.14 -2.68,-7.99 -10.66,-1.16 -20.02,-12.43 -27.88,-20.12l-17.29 -12.05c-0.58,-0.26 -1.31,-0.52 -1.88,-0.79l-11.84 -9.49c-3.49,-3.54 -5.01,-5.96 -7.67,-8.34 -4.16,-3.73 -2.67,-4.32 -10.79,-5.21 -1.28,-11.65 -9.41,-13.16 -18.56,-21.44l-20.98 -17.53c-0.06,-0.46 -0.28,-0.7 -0.46,-1.03 -20.23,0 -22.56,-8 -29.34,-8 -6.13,0 -10.24,5 -10.63,5.16l-131.98 -1.9c-0.08,-0.15 -0.49,-0.83 -0.56,-1 -0.06,-0.16 -0.38,-0.82 -0.43,-0.99 -3.64,-12.23 8.78,-35.7 16.62,-45.56l7.8 -8.23c0.42,-0.36 1.01,-0.88 1.44,-1.22 8.29,-6.61 17.57,-5.36 25.42,-11.99l4.88 -5.93c2.15,-2.3 0.3,-2.63 5.3,-3.91 7.38,-1.89 -5.43,0.88 7.46,0.88l14.92 -1.36c37.64,-3.73 39.82,-7.53 78.28,1.51l19.67 7.07c23.1,14.28 2.63,2.83 19.34,8.04 4.75,1.48 6.3,4.81 9.74,8.08 6.69,6.36 11.98,4.33 35.82,22.93 0.44,0.34 1.11,0.78 1.55,1.12l13.98 15.36c4.28,3.84 13.73,4.6 19.67,6.69l3.07 15.91c11.46,1.26 9.84,4.96 15.33,11.34 6.61,7.69 7.63,2.84 8.67,15.33 12.45,1.36 5.79,1.18 12.51,8.9l21.13 22.24c0.46,0.31 1.84,1.14 2.25,1.5 0.2,0.18 0.78,0.69 0.96,0.88l51.01 30.38c0.29,0.14 1.03,0.45 1.32,0.54 0.27,0.08 1.04,0.15 1.3,0.19 9.53,1.39 -3.36,-0.69 3.8,-0.52 9.62,0.23 7.96,6.86 20.4,7.89 3.41,-8.44 2.85,-3.8 11.98,-6.9 0.62,-0.21 1.35,-0.47 1.97,-0.67l11.15 -1.72c26.27,1.7 18.11,-6.43 31.03,-6.34 20.36,0.13 -6.02,6.19 19.52,3.65 5.87,-0.58 18.99,-2.53 24.1,-2.86 9.36,-0.6 11.17,2.06 20.27,4.18 0,24.41 -7.93,40.56 -26.59,53.42l-8.3 5.04c-0.51,0.29 -1.17,0.7 -1.68,0.99 -0.51,0.29 -1.17,0.69 -1.69,0.98 -26.42,14.31 -100.52,15.7 -112.45,7.46 -14.19,-9.81 -7.18,-1.54 -19.6,-6.88l-22.2 -12.22c-3.45,-1.71 -3.53,-1.28 -5.83,-2.04zm-1297.88 -142.75c-4.25,6.34 -3.23,2.78 -5.33,10.67 -6.58,-0.15 -5.94,-1.06 -8.76,-1.66l-13.78 -1.17c-18.39,2.15 -11.79,-5 -14.8,2.83 -9.58,0 -20.33,0.5 -29.74,0.17 -28.13,-0.97 1.68,-2.47 -16.03,-4.69 -1.76,-0.22 -7.07,0.26 -9.75,0.5l-6.91 1.02c-31.9,8.43 -20.47,-1.65 -46.88,-3.74 -6.19,-0.49 -11.44,-1.49 -18.24,1.68 -7.12,3.32 0.19,0.52 -5.1,2.96 -11.23,5.18 -6.79,-0.98 -16.43,7.71 -0.41,0.37 -0.85,1.05 -1.25,1.42 -0.57,0.53 -1.98,2.27 -2.6,2.73 -6.96,5.21 4.69,2.36 -9.77,3.57 -1.51,13.79 3.11,4.85 -5.33,8l-11.96 -6.71c-22.04,-16.55 -13.71,-10.29 -17.94,-23.37l-4.7 -8.34c-0.16,-0.22 -0.6,-0.85 -0.77,-1.08l-7.38 -8.21c-4.38,-4.03 -5.09,-4.06 -9.68,-9.21 -6.57,-7.37 -3.77,-0.47 -6.25,-9.75 11.38,-17 37.1,-27.38 51.28,-36.91 0.42,-0.28 1.04,-0.82 1.45,-1.07 0.39,-0.24 1.06,-0.7 1.45,-0.91l14.14 -4.64c0.49,-0.25 1.11,-0.76 1.61,-1.01 13.81,-6.96 76.38,-3.97 82.42,-1.13 14.86,6.99 19.29,8.29 30.73,17.31 0.04,0.03 33.27,15.08 41.88,22.1 16.78,13.68 16.07,18.57 28.41,19.59 1.48,13.5 -2.07,3.6 3.79,9.54 5.72,5.8 -3.58,2.35 9.55,3.79 0.94,11 0.2,4.74 2.66,8zm-118.95 196.07c-10.04,-0.3 -1.9,0.92 -8.52,-1.86l-27.31 -10.28c-2.14,-0.55 -5.01,-1.29 -6.52,-1.68l-40.54 -12.14c-0.43,-0.16 -1.21,-0.39 -1.63,-0.53l-39.04 -20.48c-14.23,-12.2 -4.58,-1.73 -21.23,-8.32 -7.13,-2.82 1.67,-3.37 -10.97,-4.75 -0.6,-5.54 -0.58,-3.3 -1.86,-6.14 -3.26,-7.18 -9.55,-11.57 -15.22,-16.78 -7.09,-6.51 -3.53,-7.84 -14.92,-9.09 -0.93,-8.46 -6.63,-13.89 -12.07,-19.94 -1.14,-1.27 -3.44,-3.57 -3.98,-4.06 -11.2,-10.28 -9.86,-13.5 -15.5,-19.11 -2.55,-2.54 -15,-15.54 -16.46,-28.9 -29.89,-2.49 -14.96,-12.52 -41.79,-19.56 -6.63,-1.74 -12.73,-5.26 -22.82,-5.74l-87.61 1.1c-25.55,1.13 -10.07,16.56 -42.48,-5.14 5.7,-7.78 1.71,-3.26 10.67,-8 0,-3.69 -0.36,-9.67 0.31,-13.1 2.37,-12.23 -0.96,1.41 4.12,-9.17 8.18,-17.06 -3.55,-6.61 16.76,-25.89l6.76 -6.58c0.54,-0.55 2.07,-2.17 2.63,-2.71l26.13 -13.88c5.99,-3.15 -0.47,-2.14 10.07,-3.26 33.42,-3.56 15.48,-7.39 31.73,-7.99 7.4,-0.28 11.94,2.57 24.19,2.57 9.06,0 2.55,-3.77 13.98,-0.75l13.64 7.78c1.16,0.66 2.23,1.31 3.53,1.82 7.76,3.04 -0.62,0.01 6.4,1.6 15.53,3.51 14.31,9.33 28.56,14.11 5.27,1.76 1.9,0.13 5.79,2.21l17.97 16.7c12.25,13.95 16.35,14.27 31.58,21.77 9.95,4.9 13.42,13.32 22.69,19.98 0.46,0.33 1.13,0.75 1.59,1.07 9.12,6.41 13.28,11.02 14.28,23.06l8 0c1.07,9.73 0.96,4.84 2.82,7.88l11.38 13.02c0.17,0.25 0.5,0.94 0.67,1.18l26.72 34.97c8.14,9.29 9.01,11.93 25.08,12.29 0.6,7.2 1.25,7.26 2.67,13.33 17.74,0 23.55,5.3 41.14,6.59l14.08 2.36c28.1,7.69 23.52,-10.23 77.43,-5.53 12.26,1.07 5.09,-0.75 16.71,-0.75 56.71,0 60.89,-6.6 41.48,20.13 -4.81,6.62 -2.62,-4.69 -4.14,9.21l-8 0c-1.48,13.5 2.07,3.6 -3.79,9.55 -5.71,5.8 3.58,2.35 -9.54,3.79 -1.57,14.36 1.42,2.42 -4.46,8.88l-20.4 16.95 -27.07 7.25c-0.43,0.09 -1.26,0.14 -1.69,0.24 -4.68,1.14 -2.48,0.84 -6.4,2.54 -8.2,3.57 -8.61,0.97 -17.95,3.39 -7.38,1.92 -7.55,3.5 -18.48,4.37 -1.86,0.15 -4.93,0.55 -9.17,0.43zm1457.82 -305.42c4.57,-11.32 0.01,-3.64 11.11,-4.47 10.79,-0.81 4.38,-3.53 12.89,-3.53 12.12,0 26.62,0.1 37.4,5.15 20.36,9.53 11.1,2.63 33.53,11.94 0.6,0.25 1.31,0.51 1.91,0.76 0.6,0.24 1.34,0.47 1.94,0.72 10.63,4.36 12.52,7.01 21.48,15.86 12,11.85 18.99,29.49 24.29,45.05l3.65 9.68c1.44,4.95 3.71,20.59 3.82,25.52 -14.16,1.18 -3.33,3.65 -18.49,4.02 -7.08,0.18 -6.69,0.77 -18.66,1.29 -9.04,0.39 -17.54,0.08 -26.31,-0.88 -19.46,-2.13 -3.25,-0.69 -19.22,3.58 -29.3,-19.62 -43.69,-12.31 -67.03,-11.73 -11.37,0.28 -7.77,-6.94 -24.71,5.33 -0.45,0.33 -1.02,0.87 -1.48,1.19 -6.15,4.32 -3.63,4.39 -13.46,5.21 -1.78,21.43 -6.49,5.68 -10.67,21.34l-5.33 0c-4.6,-12.71 -51.93,-52.62 -61.34,-66.68 12.06,-8.07 9.98,-15.57 29.34,-16 0.25,-11.35 -1.48,-5.99 3.32,-12.68l5.66 -5.02c0.46,-0.33 1.11,-0.77 1.59,-1.08l20.26 -9.08c6.39,-3.43 4.14,-2.02 10.88,-5.13l17.98 -11.36c4.11,-4.52 2.92,-2.98 4.33,-9.01l21.34 0zm-435.85 90.39c-0.26,-0.89 -0.67,-9.09 -0.35,-10.31 1.8,-6.79 11.55,-13.91 18.22,-17.98 13.63,-8.31 11.82,-6.09 31.26,-6.09l-12.14 19.87c-18.41,23.7 4.66,28.1 -27.87,30.8l-9.12 -16.29zm299.83 -114.39c0,-10.28 -0.29,-8.46 8.01,-10.67 10.58,7.75 5.6,11.31 12.13,22.54l18.23 19.11c6.08,4.69 6.31,5.4 9.64,11.7 -2.64,4.02 -2.66,-6.1 -2.66,8 -13.5,1.48 -3.6,-2.07 -9.55,3.79 -5.8,5.71 -2.35,-3.58 -3.79,9.54 -11.87,1.3 -16.73,8.66 -25.43,14.57 -3.49,2.37 -3.62,2.54 -6.57,4.1 -9.23,-6.76 -1.63,-5.75 -15.22,-11.45 -8.05,-3.38 -9.77,-2.37 -17.83,-8.91 -13.24,-10.75 -1.28,-6.13 -15.36,-8.16 -13.55,-1.95 -4.59,-2.17 -15.6,-6.15l0 -8c11.39,-3.04 12.46,-9.26 29.34,-10.67l0 -8c13.55,-1.13 3.26,2.12 11.22,-4.78 3.9,-3.38 0.09,-0.46 3.79,-4.21l2.68 -2.65c9.96,-9.15 9.27,-8.85 16.97,-9.7zm-1493.56 -24c7.17,-0.75 7.26,-1.25 13.34,-2.66l8.58 10.09c5.89,7.91 4.4,-2.01 4.76,13.91 13.74,1.14 9.24,2.55 16.03,15.98 0.27,0.54 0.62,1.24 0.91,1.76 11.37,20.32 16.13,4.13 25.74,22.28 -9.32,9.82 -5.87,-1.01 -24.6,15.41l-44.75 35.27 -20.98 -16.36c-3.02,-4.5 -1.61,5.25 -3.03,-7.64 -21.81,-1.82 -24.63,-8.81 -32.11,-13.23l-18.56 -5.44c4.71,-17.63 9.45,-5.29 22.53,-14.8l33.26 -30.75c0.18,-0.15 3.89,-3.69 4.11,-3.9 18.48,-17.74 13.69,-6.82 14.78,-19.9zm2150.81 171.83c19.12,-6.69 1.14,-8.16 28.2,-22.48l0 -18.67c9.41,-1.03 9.41,-1.76 10.68,-10.66 0.64,-4.45 -0.19,-13.79 -0.12,-18.79 0.29,-19.35 5.87,-13.13 5.38,-31.99 -0.04,-1.51 -0.77,-9.14 -0.76,-9.27 0.36,-7.79 4.67,-8.55 12.04,-7.65 29.7,3.64 23.03,10.47 23.45,14.34 14.65,1.6 1.47,-1.09 9.79,3.54 0.26,0.15 10.37,4.93 15.76,16.25 10.71,22.52 19.32,7.8 14.65,52.38 -1.47,14.01 -4.56,18.07 -16.2,21.18l0 21.34c17.16,-4 6.71,-6.62 23.89,-8.16 29.53,-2.65 24.32,2.63 33.05,7.22 46.15,24.28 22.67,37.46 22.84,45.01 0.11,4.76 3.02,3.34 -0.9,10.42 -5.83,10.52 -11.61,9.93 -19.43,13.03 -15.86,6.31 -22.55,9.71 -47.74,3.11 -17.73,-4.64 -6.64,1.02 -22.39,1.37 0.28,12.44 -0.05,11.28 8.33,15.67l18.34 5.66c11.55,49.6 9.47,17.83 3.79,46.46 -1.33,6.73 -0.51,8.59 -1.22,14.79l-14.98 33.02c-11.03,19.59 -23.23,2.73 -24.93,23.08 -15.68,1.3 -3.23,5.33 -24,5.33l11.87 -22.93c4.64,-8.2 3.69,-12.28 3.49,-17.48 -0.92,-24.05 4.76,-30.8 -5.67,-46.62l-3.29 -4.72c-0.31,-0.5 -0.7,-1.17 -0.99,-1.69 -19.12,-33.56 1.35,-19.48 -20.99,-40.33l-8.58 -7.46c-17.7,-9.22 -17.8,7.41 -15.84,-16.13 -3.88,-0.32 -24.1,-3.21 -27.52,-4.49l-53.79 -7.82c-3.29,-0.17 -2.69,-0.16 -5.55,-0.44l-14.49 -0.59c0,-14.81 -2.67,-15.81 -2.67,-29.34 0,-9 2.67,-8.53 2.67,-21.34 10.59,0.88 10.09,3.69 23.17,2.04 46.41,-5.85 11.71,10.88 60.65,-6.24zm-2889.59 -123.83c5.95,-14.74 46.09,-2.83 48.01,-2.66l0 8c15.65,0.35 18.32,3.02 18.67,18.67l8 0c0.4,17.9 0.94,5.89 3.94,12.17 6.11,12.82 1.4,-0.53 1.4,11.84 0,11.96 3.72,-1.3 -2.83,17.54 -7.72,22.2 -8.14,8.63 -13.81,19.15 -3.26,6.04 -1.34,0.38 -2.03,8.65 14.04,0 7.99,1.48 16.15,-2.51 0.54,-0.26 1.17,-0.7 1.68,-0.99 0.69,-0.4 2.49,-1.75 3.14,-2.19 0.47,-0.31 1.09,-0.79 1.56,-1.11 5.01,-3.38 9.98,-5.47 13.2,-10.81 0.3,-0.51 0.66,-1.19 0.92,-1.74 1.42,-2.97 3.03,-11.51 3.35,-15.32 8.25,-1.92 13.24,-1.16 16,-8l8 0c3.04,7.51 20.57,9.82 27.42,20.59 8.33,13.08 4.34,29.12 9.92,40.76 -4.8,1.74 -2.49,0.56 -5.25,2.74 -7.03,5.52 -7.87,11.94 -8.08,21.26 14.08,3.28 12.36,-1.8 27.48,1.88 4.54,1.11 -0.34,0.58 3.15,1.03l9.87 -2.23c14.2,-2.44 34.18,1.74 51.59,2.99l163.94 -1.01c6.53,0 10.3,1.5 13.67,1.58l26.34 -1.58c11.08,0 0.47,6.07 14.63,3.68 10.81,-1.82 -3.89,-4.48 14.68,-1.04 14.94,2.78 2.53,2.24 15.21,-0.62 11.36,-2.57 45.3,2.21 62.25,-1.93l3.31 -1.03c16.38,-3.36 72.13,-3.1 87.11,6.46 0.96,0.61 4.53,4.28 5.43,5.24l9.09 9.57c0.35,0.43 0.86,1.03 1.2,1.48l6 10c3.8,5.2 1.05,0.71 3.75,4.24 3.66,4.78 4.04,-2.55 4.04,9.3 0,9.51 -6.13,8.16 -14.69,7.07 -17.59,-2.23 -10.07,0.94 -22.65,0.94 -18.81,0 -10.4,-2.08 -30.69,0.96 -7.59,1.14 -21.19,-1.16 -33.43,-1.04l-60.62 0.71c-15.88,2.85 4.18,3.12 -12.53,3.03l-54.83 1.79c-20.63,0.98 -37.81,-2.78 -58.61,-2.78 -9.93,0 -8.4,1.4 -15.78,1.62 -3.28,0.1 -7.99,-0.34 -12.67,-0.3 -28.3,0.22 -127.95,-3.5 -144.06,0.26l-3.43 1.19c-0.57,0.18 -1.24,0.54 -1.84,0.73 -12.45,3.88 -19.67,-0.11 -30.22,-3.47 -13.83,-4.4 -1.64,2.65 -13.38,2.65l-40 0c-13.02,0 -23.86,-16.92 -50.68,-10.67 0.77,7.02 0.43,3.33 1.76,6.42 2.36,5.47 4.28,6.86 9.68,8.39 22.02,6.26 32.56,14.98 50.83,26.93l20.4 30.27 -1.57 16.33c-0.36,15.04 6.12,20.99 -8.82,31.96 -7.31,5.37 -28.81,7.54 -34.86,6.36 -10.47,-2.04 -11.52,-14.64 -24.47,-18.14 -8.59,-2.33 3.34,3.51 -6.34,-1.23 -0.25,-0.12 -3.47,-2.56 -3.89,-3.16l-2.73 -8.11c-14.01,-1.54 -2.62,0.35 -10.88,-5.12 -9.66,-6.39 -0,-4.46 -13.12,-5.55 -1.51,67.97 30.34,37.98 10.63,101.31 -5.11,16.43 -16.33,9.42 -30.09,9.25 -20.98,-0.26 -23.38,-7.56 -35.72,-20.71 -6.96,-7.41 -1.16,5.2 -6.16,-7.17 -2.55,-5.85 -0.02,-17.49 2.1,-22.03 8.61,-18.45 0.67,-12.58 19.93,-38.67 17.74,-24.04 -0.45,-26.24 -10.15,-18.4l-10.97 16c-0.29,0.51 -0.68,1.18 -0.96,1.71 -0.28,0.53 -0.66,1.2 -0.93,1.74 -0.28,0.54 -0.63,1.22 -0.89,1.77 -0.27,0.56 -0.58,1.26 -0.84,1.83l-5.45 10.55c-0.03,0.04 -7.92,6.11 -9.35,6.65l-22.49 9.52 -15.86 -8.16c-4.88,-1.76 -11.62,-3.3 -13.98,-11.22l-4.18 -15.82c-1.93,-4.53 -1.9,-2.85 -2.24,-8.31l1.64 -26.24c0.15,-0.48 0.54,-1.2 0.73,-1.67l4.71 -14.56c4,-8.64 19.05,-23.33 26.53,-26.04l0 -5.34c-14.66,-5.31 -4.79,-8 -29.34,-8 -26.28,0 -58.96,-1.73 -84.82,2.14 -0.3,0.04 -0.99,0.21 -1.27,0.22l-2.48 -0.24c-18.17,-2.95 -28.5,0.95 -45.31,-1.6 -16.23,-2.46 -25.98,9.98 -52.29,4.29 -15.1,-3.26 4.64,-1.97 -14.06,-4.62 -0.85,-0.12 -1.71,-0.21 -2.58,-0.27 -0.65,6.6 -1.37,13.18 -2.17,19.74l9.77 0.96c25.06,2.65 30.59,4.89 58.51,2.45l72.88 -1.91c14.94,-1.97 36.3,9.63 47.79,-2.49 3.18,7.88 -5.95,4.14 8,5.33l0 8c-10.26,1.13 -5.59,-2.23 -9.62,6.38 -7.16,15.29 -7.21,48.34 -2.94,64.86 2.46,9.54 6.87,5.76 7.23,22.11 12.95,0.29 14.82,-0.17 16,10.67 10.52,0.88 15.47,5.84 23.52,4.76 7.1,-0.96 10.67,-4.76 21.82,-4.76 1.05,4.48 2.28,9.9 4.18,14.61 3.84,9.49 1.86,-1.74 4.34,10.76 2.09,10.52 -2.23,9.73 7.33,20.04l17.81 16.93c12.15,15.15 49.35,13.68 63.79,0.43l14.02 -12.65c0.51,-0.58 1.88,-2.36 2.38,-2.95 3.39,-4.01 6.88,-6.77 8.42,-12.94 11.62,-46.72 -30.62,-36.9 51.09,-36.9 11.88,0 -1.48,-0.24 9.56,-3.77 19.41,-6.18 15.53,-1.99 24.24,-21.1 3.07,-6.73 11.53,-13.63 11.53,-20.47 0,-43.07 -20.78,-47.26 -21.34,-72.01 53.59,0 36.97,-3.99 53.34,8 5.98,-8.16 9.8,-5.48 24.04,-5.55 9.3,-0.04 18.16,-2.24 21.3,5.55 15.93,-1.32 9.5,-3.95 18.67,-10.67 2.55,6.32 2.67,3.47 8.53,3.39 0.25,-0 1,-0.1 1.26,-0.1l62.53 1.32c12.44,-1.06 28.62,-2.75 45.04,0.73l0 48.01 22.33 20.34c0.28,0.19 10.83,10.47 18.68,13.33 34.98,12.73 51.97,-10.11 55,-12.34 10.13,2.36 13.65,5.65 21.4,10.6l6.6 4.07c6.32,4.32 6.41,6.24 12.1,9.24 5.45,2.86 9.41,3 15.76,5.79l28.9 8.35c9.37,2.96 11.41,1.16 18.58,2.25 0.27,0.04 0.99,0.2 1.26,0.29l5.78 3.72c7.4,3.98 18.9,1.92 27.6,1.75l29.61 0.72c0.44,0.08 1.25,0.23 1.7,0.28 1.93,0.23 14.1,-0.48 14.7,-0.41 10.88,1.24 12.56,10.63 29.37,12.03 1.41,12.93 13.33,17.72 25.58,22.43l11.76 4.24 0 16 8 0c0.99,9.04 7.28,11.98 11.08,19.47 2.12,4.19 0.59,9.86 15.6,9.86 6.54,0 4.57,-7.86 5.21,-10.56l0.71 -3.14c0.09,-0.42 0.32,-1.19 0.4,-1.62 11.93,-62.41 11.44,-26.83 19.98,-54.9 2.3,-7.54 -4.58,-6.79 11.04,-7.13 0.28,-12.62 -1.05,-5.96 3.58,-12.43l25.76 -22.24c4.43,2.34 1.35,1.48 6.49,4.39 9.21,5.21 20.03,2.1 32.52,7.24l10.73 5.31c8.81,3.33 22.4,1.7 32.96,1.75 5.29,0.03 13.72,0.44 18.67,-0.13l26.46 -7.88c40.01,-21.43 24.79,-10.21 38.51,-15.32l4.66 -2.85c12.78,-9.22 18.55,-12.84 34.37,-16.52 5.2,14.38 31.58,10.83 42.82,7.73l27.34 -17.59c4.31,-5.29 9.22,-13.69 17.85,-16.82l0 -32.01c36.69,-19.41 22.2,-5.33 45.34,-5.33l53.23 -2.28c9.9,0.12 8.92,2.28 21.44,2.28 16.99,0 22.84,-3.11 37.36,-2.83 20.43,0.4 35.33,4.69 55.13,2.16 28.07,-3.58 54.3,0.67 83.53,0.67 -4.09,3.88 -4.46,2.69 -5.33,10.67 -10.5,1.15 -12.7,10.58 -15.51,24.49 -2.36,11.66 -1.58,29.43 4.22,37.47 0.32,0.45 0.85,1.03 1.19,1.48l9.88 11.47c0.39,0.38 0.96,0.92 1.37,1.3 0.4,0.38 0.95,0.94 1.37,1.3 0.58,0.51 2.22,2.01 2.85,2.48l3.23 2.12c15.02,8.19 23.91,-0.07 37.53,4.91l5.28 2.86c0.76,0.35 2.93,1.41 3.7,1.69 6.29,2.25 0.92,1.11 8.91,1.78l7.81 -8.19c4.27,-2.81 6.31,-2.96 10.86,-5.14l10.35 29.66c1.63,4.32 -1.63,0.34 2.27,5.74 4.84,6.7 -4.06,3.21 8.73,4.61 1.43,13.04 2.31,6.87 14.14,12.58 0.19,0.09 6.11,4.07 8.39,5.28l25.34 3.73c13.43,0.77 18.45,-4.05 28.87,-9.07l11.56 -5.68c0.25,-0.19 0.83,-0.7 1.08,-0.91 7.58,-6.17 10.92,-11.27 10.67,-19.5 -0.65,-21.05 -4.69,6.37 -0.92,-6.88 0.68,-2.38 6.38,-2.89 7.55,-16.89 15.22,0 18.45,2.67 34.67,2.67 41.63,0 9.9,-10.06 37.34,-10.67 1.84,-16.78 4.39,0.87 7.19,-18.7l0.56 -7.01c0.13,-0.34 0.45,-1.06 0.64,-1.36 0.34,-0.53 3.06,-2.61 3.9,-3.21 8.46,-6.02 -7.72,2.41 3.71,-1.73l0 -8c-9.37,-3.78 -3.36,1.86 -6,-13.07l-1.38 -7.84c-0.04,-0.33 -0.12,-1.06 -0.13,-1.36 -0.01,-0.27 0.04,-0.98 0.04,-1.23 0.36,-16.82 3.36,10.17 0.59,-5.36 -1.15,-6.45 -5.33,-9.43 -11.79,-11.16l0 -5.33c36.15,-3.01 21.32,-0.25 45.74,-0.64 5.1,-0.08 11.46,-2.03 20.94,-2.03 16.48,0 27.53,2.36 43.25,-1.79l15.23 -1.05c11.48,-0.2 8.25,-1.47 16.66,-2.18 12.64,-1.06 41.52,5.66 55.35,4.16 14.17,-1.54 -2,-6.32 10.73,-1.41 14.96,5.76 9.11,22.04 14.22,30.69 8.83,14.93 24.24,24.58 42.18,26.64 11.25,1.29 22.52,2.59 26.41,-7.03 18.97,0 16.23,2.38 27,13.01l37.91 23.61c0.45,0.26 1.13,0.71 1.6,0.92 5.23,2.4 20.5,0.14 29.06,1.45 6.88,1.05 14.84,8.12 25.59,2.27 17.32,-9.42 13.29,1.88 28.9,-0.3 22.68,-3.17 32.39,-16.77 57.35,7.66 7.56,7.4 16.62,19.56 27.28,20.72 1.19,14.26 12.81,18.28 20.85,27.2l3.68 4.56c6.13,6.36 16.15,10.91 16.37,-3.88 0.13,-9.33 -4.14,-0.74 1.6,-7.85 0.16,-0.19 0.79,-0.69 0.95,-0.9 0.17,-0.22 0.78,-0.77 0.94,-1 0.17,-0.24 0.69,-0.88 0.84,-1.14l1.36 -4.34c0.04,-0.38 0,-1.24 0,-1.63 -0.03,-6.29 -0.08,-0.08 -0.79,-4.67 -0.9,-5.88 -2.8,1.61 -0.46,-3.69 4.95,-6.75 9.73,-10.41 21.34,-10.67 1.26,-15.09 14.16,-22.71 25.56,-30.48 13.99,-9.53 19.07,-8.03 31.89,-7.71l32.36 7.91c-0.1,0.28 -0.77,2.14 -0.86,1.72 -0.1,-0.47 -0.71,1.23 -0.95,1.89 9.43,-0.79 5.89,-1.78 12.98,-1.6 3.42,0.09 7.14,1.6 13.69,1.6 14.01,0 18.99,-2.75 29.35,-2.38 31.14,1.12 8.37,-5.83 41.64,-6.23 3.17,-0.04 1.36,0.71 5.78,-0.25 17.48,-3.78 -2.12,-7.14 24.58,-7.14l0 -8c15.23,-1.67 1.59,-3.5 16.99,-8.44 6.48,-2.08 0.11,1.7 6.79,-1.35 16.83,-7.69 8.23,-2.6 19.71,-5.67 5.59,-1.49 -3.54,-1.03 9.92,-3.02 3,-0.44 7.47,-0.19 10.6,-0.19 1.38,-12.59 2.12,-4.48 7.54,-13.52 1.18,-1.97 1.15,-2.87 2.06,-5.82 0.11,-0.37 0.24,-1.16 0.36,-1.54 7.5,-23.1 3.38,-9.68 3.38,-35.14l24.36 2.08c20.5,3.62 34.69,0.58 58.33,0.58 11.31,0 21.43,5.48 30.12,0.52 5.58,-3.18 2.31,0.34 4.55,-5.85l5.33 0c4.14,10.25 9.97,5.29 32.02,5.36 18.75,0.06 20.16,2.56 31.99,-5.36 4.47,10.1 -1.5,-10.39 -0.53,3.64 0.15,2.2 -4.23,4.37 13.87,4.37 2.36,-5.84 5.7,-4.64 11.95,-4.95 21.54,-1.1 87.55,4.92 98.24,25.45 1.67,3.21 0.95,-1.82 1.82,6.17 10.82,1.18 11.36,4.81 16.01,13.32l3.55 7.12c0.28,0.54 0.6,1.25 0.88,1.79l10.01 13.99c3.34,3.46 2.47,1 4.88,5.79 4.54,9 2.31,50.07 -3.66,58.84l-3.45 4.61c-7.26,9.87 -4.27,10.74 -14.9,11.9 0,10.53 0.84,10.82 2.67,18.67 12.67,0 14.78,-1.69 24.9,-1.57 7.75,0.09 14.91,3.69 17.78,-3.77 19.67,0 16.01,1.96 23.64,-6 1.5,-1.57 2.23,-2.21 2.91,-3.11 5.14,-6.73 -2.32,3.27 2.17,-3.55l46.9 -73.37 -0.77 -41.41c0.99,-6.62 1.86,-6.45 2.49,-13.91l10.33 -0.72c1.02,-0.09 3.33,-0.19 5.09,-0.64l8.65 -3.72c7.78,-4.63 6.64,0.86 7.93,-10.92 9.94,-1.09 4.43,-0.36 8.04,-2.99 7.93,-5.76 2.72,-5.34 -0.04,-15.68 16.35,-10.95 14.54,-27.75 16,-45.34 -7.42,-2.68 -11.98,-8.93 -16.28,-15.73 -10.63,-16.76 -33.4,-16.28 -53.06,-16.28 0,-13.91 3.69,-23.04 6.64,-36.16 1.96,-8.76 0.45,-17.04 -2.94,-23.5l-6.28 -15.1c-1.32,-4.29 0.56,-0.62 -1.94,-6.06 -1.75,-3.81 0.25,-0.03 -1.93,-3.4 -0.31,-0.48 -0.83,-1.06 -1.16,-1.52 -4.8,-6.55 -9.08,-10.78 -15,-17 -5.94,-6.23 -7.8,-9.32 -15.2,-11.47 -2.73,-0.8 -3.5,-0.38 -6.71,-1.29 -17.72,-5.05 -18.96,-20.23 -40.76,-12.67 -15.02,5.21 -16.99,2.5 -29.39,10.81 0,39.17 3.29,67.03 -14.94,97.07l-2 3.33c-0.31,0.49 -0.72,1.16 -1.04,1.63 -8.37,12.32 -6.5,8.35 -12.27,11.86 -0.51,0.31 -1.19,0.72 -1.72,1.01l-44.94 4.72c-5.47,-0.29 -10.16,-2.03 -18.37,-3.04l-102.09 -0.73c-7.47,0 -7.68,1.5 -16,1.5l-80.06 0.08c-4.94,0.28 -10.4,0.25 -14.97,-1.03 -10.72,-3 3.85,0.26 -8.98,-4.39 2.34,-8.77 3.87,-8.78 10.67,-13.34 -1.86,-8 -4.6,-15.19 -5.33,-24 -6.28,-1.46 -7.88,-2.49 -16,-2.67 -1.46,-17.59 -18.45,-10.67 -40.01,-10.67l-21.34 5.34c-1.86,-7.99 -3.48,-7.86 -5.46,-13.39 -4.58,-12.75 -0.96,-4.95 -0.61,-14.01 0.41,-10.63 -8.81,-15.7 -9.94,-25.95 -11.76,0 -15.53,-0.27 -24.28,-7.72 -0.42,-0.36 -1.01,-0.88 -1.44,-1.22l-19.69 -12.31c-0.22,-0.09 -5.5,-2.01 -5.87,-2.14l-28.61 -8.47c-20.22,1.42 1.96,4.33 -12.45,3.13 -22.76,-1.88 -2.96,-8.59 -43.91,1.82 -4.78,1.22 -3.88,0.63 -8.56,2.11 -12.78,4.05 -18.43,11.29 -30.64,13.24 -16.41,2.62 -21.33,6.22 -43.24,6.22l-23.51 -35.17c-17.36,-19.18 -28.64,-20.43 -47.2,-3.53 -10.6,9.65 8.1,-6.89 -2.8,2.53l-16.81 15.19c-0.38,0.39 -0.89,1 -1.29,1.38 -8.11,7.71 -2.37,2.99 -12.14,6.53 -9.44,3.43 -0.76,-1.79 -8.77,4.57l-25.98 16.71c-23.94,12.23 -40.17,-7.88 -73.63,0.08 -14.09,3.36 -32.32,4.74 -45.82,11.17l-4.41 2.12c-0.36,0.12 -1.12,0.28 -1.48,0.39l-9.94 2.8c-0.52,0.24 -1.22,0.62 -1.74,0.88 -0.26,0.13 -3.13,1.72 -3.49,1.93 -6.02,3.61 -4.99,2.66 -9,7.12 -6.46,7.19 -1.95,-1.48 -5.37,7.97 -27.79,-13.33 -27.1,-6.52 -38.5,-2.63l-8.36 1.38c-9.76,2.47 -13.37,4.45 -14.48,14.58l-8 0c-1.75,15.99 -8,3.93 -8,21.34 0,13.23 -1.28,25.87 8,34.67 -14.23,0 -28.47,-0.05 -42.71,0.04 -17.96,0.1 -24.15,-2.57 -39.87,-2.81 -24.24,-0.37 -33.38,4.45 -52.6,3.86 -12.74,-0.39 -5.87,1.58 -16.85,1.58 -13.02,0 -9.21,-3.57 -21.05,-2.19 -15.4,1.78 -2.06,3.53 -27.96,1.19 -6.32,-0.57 -12.36,-0.9 -13.51,-5.91 -0.17,-0.76 -0.98,-0.73 -1.48,-1.09 13.88,-3.71 2.27,-2.56 13.33,-10.67 -2.48,-6.14 -11.28,-5.35 -2.67,-8 0,-27.32 -5.69,-29.4 -24.98,-47.03 -17.45,-15.95 -41.71,-13.88 -63.03,-3.65 0,-15.29 0.12,-18.11 -4.32,-30.35 -0.23,-0.63 -0.45,-1.35 -0.68,-1.99l-18.17 -29.84c-5.93,-7.82 -8.84,-10.47 -8.84,-20.5l-44.1 -7.14c-8.35,2.03 -16.39,1.04 -23.36,6.37 -9.16,7 -2.42,10.04 -15.23,11.44 -1.19,10.89 -7.07,11.47 -12.42,19.58 -2.5,3.8 -0.93,1.07 -2.93,5.07 -4.5,9 -7.65,18.76 -9.66,30.6 -3.86,22.83 10.44,23 -0.04,28.68 -9.52,5.16 -18.66,-9.25 -25.62,-9.25 -25.83,0 -11.33,0.66 -27.16,4.84 -7.7,2.03 -13.61,4.05 -19.1,10.24 -2.87,3.23 -0.64,1.28 -3.53,4.47 -2.68,2.96 -1.85,1.99 -4.05,3.95 -0.65,0.58 -4.14,3.19 -4.49,3.56 -8.96,9.26 -3.76,28.35 1.95,37.12 4.44,6.83 3.35,1.63 5.72,10.5 -6.32,2.36 -3.49,-1.59 -5.33,5.34 -10.59,-3.51 5.64,-7.46 -14.25,-2.83l-33.56 0.03c-13.84,-1.94 -4.85,-2.29 -14.59,-4.54 -16.09,-3.71 -9.02,6.32 -28.38,5.15 -15.99,-0.96 -7.87,0.85 -10.56,-5.82l-10.67 0c-2.57,6.36 -7.81,5.6 -15.71,5.63l-146.2 0.04c-0.43,-0.08 -1.18,-0.32 -1.61,-0.4 -0.44,-0.09 -1.2,-0.33 -1.64,-0.41 -0.46,-0.08 -1.24,-0.29 -1.71,-0.36 -13.83,-2.15 -15.97,2.01 -14.68,-12.06 0.04,-0.49 0.09,-1.76 0.15,-2.26 0.03,-0.22 0.1,-0.94 0.14,-1.18 0.04,-0.25 0.2,-0.99 0.24,-1.26l1.04 -4.51c0.77,-14.08 -22.37,-26.35 -34.09,-30.76 -9.28,-3.49 -29.49,-1.85 -37.61,9.21 -5.71,7.78 2.35,-7.53 -1.69,3.64l-8 0c-4.38,-12.11 -23.04,-16.96 -31.75,-26.93l-7.64 -8.36c-4.82,-2.66 -1.31,-0.63 -6.06,-1.93 -8.48,-2.32 -3.06,0.93 -12.12,-3.89 -12.75,-6.78 -6,-5.14 -23.57,-8.44 -16.11,-3.02 -29.52,-10.62 -42.84,-13.58 -2.44,-0.54 -1.89,0.17 -4.59,-1.11 -12.11,-5.74 -14.06,-10.03 -32.28,-11.87 -27.27,-2.76 -35.35,4.38 -41.52,3.7l-7.44 -2.95c-9.11,-5.52 -7.67,-11.36 -19.56,-12.66 -1.62,-14.8 3.31,-1.93 -7.04,-11.63l-20.61 -22.07c-1.94,-2.43 -1.54,-2.12 -3.48,-4.52 -7.28,-9.02 -9.47,-19.82 -16.24,-29.06 -3.13,-4.28 0.08,-1.58 -3.62,-4.24 -3.95,-2.83 -7.29,-2.86 -13.03,-3.15l-8.44 13.68c-16.96,16.84 -8.97,17.02 -20.9,18.33 -0.93,11.92 -3.73,17.23 -11.49,23.35 -6.82,5.39 -6.18,3.06 -10.31,4.32 -6.5,1.99 -2.67,-1.46 -8.55,5.81 -7.44,9.2 -9.96,9.02 -18.94,15.91 -6.82,5.23 -11.12,12.23 -20.05,14.62 -6.99,-4.68 -5.51,-1.35 -8,-10.67l-8 0c-2.55,8.28 2.72,0.98 -2.03,1.99 -0.41,0.09 -2.09,-0.19 -4.07,-0.45l-20.95 1.04c-0.29,0 -1.04,-0.04 -1.34,-0.06 -26.63,-1.55 -19.89,1.12 -43.69,5.83l-16.01 4.79c-23.35,10.26 -13.35,4.54 -31.88,21.58 -9.68,8.9 -12.2,17.02 -26.74,18.61 -0.6,5.5 -0.86,3.66 -1.86,6.14l-2.66 5.34c-3.06,5.53 -3.17,5.4 -6.15,9.85 -16.12,0 -14.96,-5.22 -31.82,-5.54 -25.55,-0.49 -41.13,2.87 -47.78,27.29 -2.92,10.73 -0.47,23.59 -11.08,23.59l-194.7 0c-11.61,0 -5.71,-2.04 -6.01,-4.55l11.35 -22.13c-2,-3.78 -1.37,-2.09 -3.84,-6.83 -3.54,-6.76 -1.34,-2.2 -3.34,-7.33 -7.05,-18.15 -22.9,-29.18 -39.19,-38.16l-5.3 -2.71c-3.65,-1.16 -2.91,-0.86 -6.9,-1.2 -28.53,-2.42 -24.25,8.43 -26.78,0.21l-8 0 -0.92 -13.86c-1.17,-5.74 -5.73,-9.56 -9.5,-13.02l-12.27 -11.77c-9.86,-9.61 -20.9,-16.56 -30.4,-20.28 -4.46,-1.74 -6.22,-2.41 -13.59,-2.41 -31.39,0 -37.58,-2.12 -59.16,26.37 -0.3,0.4 -0.84,1.02 -1.11,1.42 -0.26,0.39 -0.72,1.06 -0.93,1.45l-1.67 13.77c0.3,17.71 0.21,3.26 -3.82,18.32l-36.02 -11.75c-8.49,-0.95 -38.62,4.04 -44.26,8.63l-12.9 13.95c-7.4,9.26 -10.01,17.03 -11.43,28.58 -5.03,40.97 5.44,26.53 5.93,48.6l-88.01 0c-19.85,0 -31.37,5.33 -42.68,5.33 -14.82,0 -9.98,-2.61 -19.73,-4.68 -0.12,5.76 -0.3,11.51 -0.52,17.27l0.08 0 47.35 2.21c17.27,1.53 47.14,2.15 63.79,-0.95 16.16,-3 6.69,3.27 10.37,-5.85l8 0c4.64,12.82 0.69,-2.15 5.34,10.67l8 0c2.84,-7.39 4.39,-2.27 10.67,0 4.64,-12.82 0.69,2.15 5.33,-10.67l13.34 0 2.99 10.57c5.74,-2.24 3.31,-3.32 8.95,-2.91 0.31,0.02 1.05,0.28 1.37,0.32 17.81,2.6 -10.18,0.11 4.79,1.06 27.04,1.71 17.57,-16.26 1.63,-23.45l-30.41 -20.27c3.15,-8.44 -5.79,-3.83 8,-5.33 -2.14,-8.04 0.04,-5.86 -8,-8.01 3.26,-2.46 -3,-1.73 8,-2.66 -0.73,-8.82 -8.03,-34.3 13.33,-40.01 3.26,-10.59 -3.57,4.61 16.87,-7.01 7.63,-4.34 -1.31,-3.49 10.56,-2.05 11.01,1.33 19.97,10.88 27.11,13.62 10.67,4.11 8.28,18.23 22.81,19.44 0.21,9.41 1.39,11.64 5.82,15.51 4.43,3.86 8.97,2.73 10.18,13.82l8 0c1.06,9.64 3.09,10.67 13.34,10.67 9.69,0 8.56,-9.62 10.67,-18.67 -13.78,-1.14 -9.15,-2.88 -15.19,-11.48 -14.64,-20.83 -8.2,-13.33 -16.62,-33.82l-2.22 -13.88c1.59,-8.13 -0.69,-5.34 7.36,-7.5l0 -8c-5.01,-1.93 -3.71,-0.82 -2.18,-8.73 2.13,-11.02 -5.65,-8.78 4.85,-9.94zm1544.24 -26.67c16.44,0 29.72,-3.99 42.26,5.74 12.49,9.69 25.35,48.49 23.89,62.83 -1.13,11.01 -6.58,19.39 -7.48,30.11 5.39,1.95 5.55,8 10.67,8 10.05,0 5.04,-1.76 16,-2.67 0.86,-10.28 2.67,-8.6 2.67,-21.34l8.91 -4.61c9.08,-4.5 24.43,-2.67 32.73,2.97 4.4,2.99 3.59,3 6.77,6.56 5.2,5.84 6.05,8.59 12.93,11.08 0,22.28 3.12,37.67 -16.86,41.4 -4.02,0.75 -1.05,-0.58 -4.78,1.25 -9.25,4.54 -0.82,6.79 -15.7,8.03l-3.07 15.91c30.88,7.17 20.06,-5.25 40.41,-5.25 9.06,0 4.86,1.13 12.68,1.24l37.99 -1.24c10.25,0 4.18,1.41 14.53,1.23l105.63 -0.87c27.34,-3.66 4.7,-8.15 41.41,-1.87 9.15,1.56 17.33,-1.16 27.8,-1.16 6.53,0 10.29,1.5 13.66,1.58l23.68 -1.58c18.83,0 30.02,7.97 47.95,5.15l120.08 -5.15c7.97,0 5.06,2.29 9.47,6.53 9.02,8.66 11.13,5.27 20.96,11.04 5.12,3 6.47,7.84 6.9,11.77l10.14 3.58c15.44,8.94 6.15,7.38 1.89,13.06 -16.66,22.25 -29.83,19.04 -57.94,18.89l-50.12 -2.27c-2.89,0.16 -4.56,-0.11 -9.56,-0.08 -7.03,0.05 -9.96,0.17 -16.33,0.02l-88.03 -0.2c-15.86,-0.02 -10.94,6.28 -38.12,4.49 -5.49,-0.36 -4.49,0.04 -9.63,-1.34l-259.34 -0.81c-10.48,0.18 -18.42,3.01 -21.71,15.34 12.12,2.82 44.5,16.76 49.91,27.46l6.23 17.54c5.72,15.09 6.6,38.64 -15.16,41.06 -32.77,3.65 -12.15,1.37 -41.85,-13.18 -9.17,-4.5 -12.06,-11.87 -19.33,-18.01l-8.21 -5.13c-8.35,-4.73 -9.11,-4.4 -19.6,-4.4 0,15.71 4.1,15.04 16,21.34 0,26.74 10.95,15.68 9.47,43.59 -0.44,8.3 -2.34,8.69 -6.61,15.09 -0.32,0.49 -0.75,1.16 -1.08,1.65 -0.33,0.49 -0.75,1.15 -1.09,1.64 -2.74,4 -0.27,1.09 -3.31,4.76l-3.95 4.06c-19.59,14.21 -55.22,-3.55 -60.3,-25.39 -0.19,-0.8 -0.24,-1.52 -0.43,-2.32 -2.42,-10.7 -6.28,-6.73 -1.12,-17.93 4.09,-8.87 1.45,1.91 5.11,-11.07 1.14,-4.06 1.81,-7.22 1.97,-14.08 -15.6,-1.29 -18.2,-0.68 -29.11,10.89 -7.08,7.5 -4.05,-3.32 -5.56,10.44 -18.11,0 -42.46,3.21 -56.04,-2.42 -0.59,-0.24 -1.26,-0.6 -1.88,-0.83 -0.65,-0.24 -1.35,-0.5 -2.03,-0.72 -11.6,-3.81 -12.38,2.68 -13.76,-12.66l-4.94 -14.85c-0.06,-0.73 1.44,-8.25 2.21,-10.03l6.26 -15.74c3.21,-20.88 17.99,-16.02 32.53,-23.06 9.66,-4.67 -4.68,-0.34 8.3,-5.03 -0.99,-11.92 -7.29,-15.64 -16.61,-18.19 -4.91,-1.34 -10.73,-1.91 -13.01,-2.11 -2.16,-0.18 -5.23,-0.19 -5.59,-0.22l-63.64 -0.24c-0.35,-0.01 -1.24,-0.06 -1.61,-0.09l-5.97 -1.14c-22.85,-3.24 -100.1,1.5 -125.03,2.8l-51.21 -2.19c-8.65,0.01 -18.13,-0.34 -26.68,0.28l-219.13 2.04c-12.43,0.74 -7.95,-2.29 -20.93,-2.29 -10.62,0 -14.23,3.99 -25.46,1.67 -14.82,-3.07 -21.7,-5.78 -34.37,-3.54 -13.42,2.37 -24.06,-6.14 -25.52,-19.46 -9.57,-1.05 -1.7,-0 -6.19,-1.81 -4.93,-1.98 2.63,0.01 -7.14,-3.53l0 -13.33c8.72,2.03 7.38,4.3 14.03,-1.76l7.31 -14.24c43.01,-3.58 89.27,2.66 133.35,2.66l141.64 -0.89c4.72,0.26 19.43,1.16 29.13,1.01l151.94 -2.79c6.53,0 10.29,-1.5 13.67,-1.58 18.3,-0.43 35.04,2.68 66.36,0.26 0.37,-0.03 8,-0.44 9.11,-0.43 16.61,0.22 -1.07,3.44 28.15,3.08l32.08 1.33c0,-11.83 2.75,-20.1 -8.15,-24.14 -1.72,-0.64 -8.08,-1.96 -10.52,-2.53 -0.18,-0.38 -0.21,-1.54 -0.25,-1.24 -0.04,0.3 -0.23,-1.09 -0.3,-1.27 -0,-0 0.64,-0.1 -1.61,-3.93 -0.68,-1.15 -5.77,-7.41 -6.56,-8.72l-9.95 -19.52 13.86 -15.5c17.26,0.43 34.9,4.48 48.19,14.8l18.3 11.04c14.29,6.09 9.34,8.7 16.71,20.63l6.97 11.7 18.67 0c1.84,-6.93 -0.99,-2.98 5.33,-5.34 -3.05,-13.09 -3.17,-10.62 -13.33,-16 0,-14.04 -0.35,-17.6 -7.44,-27.24 -0.47,-0.63 -1.85,-2.39 -2.28,-3.06 -2.76,-4.27 -0.76,-0.3 -2.85,-5.15l-4.73 -22.05c-6.46,-21.26 -0.04,-10.58 -0.02,-27.01l-0.79 -5.57c-0.28,-5.88 -1.41,-14.15 5.66,-20.86l12.01 -9.53c4.18,-3.02 0.96,-4.9 8.44,-4.9z"></path> <path class="fil0" d="M6135.02 264.04c-0.37,16.66 -2.56,13.34 -18.67,13.34 -2.19,-10.37 -2.19,-2.97 0,-13.34l18.67 0zm-24 -24l-1.14 2.09c-0.07,0.15 -0.49,0.9 -0.57,1.1 -0.09,0.19 -0.44,0.94 -0.53,1.16l-0.91 2.54c-5.94,16.77 -10.18,6.63 -10.18,22.45 0,10.26 1.73,16.93 7.71,21.63 12.51,9.84 16.7,-1.82 21.63,10.38l8 0c5.06,-12.55 19.94,-11.46 20.89,-33.13 0.61,-13.87 0.95,-15.45 -9.07,-24.02 -15.65,-13.37 -12.08,-4.77 -35.82,-4.2z"></path> <path class="fil0" d="M7671.25 250.71c6.83,-2.65 14.15,-2.67 24,-2.67 -2.7,5.63 -1.96,2.41 -2.66,10.67l-21.34 -8zm-21.34 2.67l4.99 6.87c3.41,5.62 1.16,7.18 13.47,14.68 14.42,8.79 18.25,4.2 21.67,2.84 14,-5.6 13.38,-8.64 15.27,-14.78l0.83 -2.98c4.08,-10.66 6.68,-5.81 3.8,-15.66 -3.77,-12.92 1.41,-2.03 -7.06,-9.36 -0.87,-0.75 -8.33,-5.89 -9.06,-6.19 -11.58,-4.74 -19.98,1.6 -27.66,8.81l-16.26 15.77z"></path> </g> </g> </g> </svg> 