<svg xmlns="http://www.w3.org/2000/svg" viewBox="0 0 30.5 30.5"><defs><style>.cls-1{fill:#fff;}</style></defs><g id="Layer_2" data-name="Layer 2"><g id="Layer_1-2" data-name="Layer 1"><path d="M15.25,0A15.25,15.25,0,1,0,30.5,15.25,15.27,15.27,0,0,0,15.25,0Z"/><path class="cls-1" d="M15.18,17.17a4.33,4.33,0,0,1-1.12,3,3.93,3.93,0,0,1-2.91,1,3.66,3.66,0,0,1-3-1.3,5.77,5.77,0,0,1-1-3.71v-2a5.59,5.59,0,0,1,1.09-3.7,3.7,3.7,0,0,1,3-1.3,3.75,3.75,0,0,1,2.89,1.06,4.84,4.84,0,0,1,1.13,3.06H12.84a3.14,3.14,0,0,0-.38-1.7,1.51,1.51,0,0,0-1.28-.47,1.41,1.41,0,0,0-1.33.66A4.44,4.44,0,0,0,9.43,14v2.2a5.07,5.07,0,0,0,.39,2.39,1.43,1.43,0,0,0,1.33.65,1.52,1.52,0,0,0,1.28-.46,3,3,0,0,0,.4-1.63Z"/><path class="cls-1" d="M20.42,17.85l2-8.45H25L21.65,21.05H19.2L15.86,9.4h2.61Z"/></g></g></svg>